<svg width="78" height="64" viewBox="0 0 78 64" fill="none" xmlns="http://www.w3.org/2000/svg">
<path opacity="0.997" fill-rule="evenodd" clip-rule="evenodd" d="M77.283 24.1509C77.283 36.2264 77.283 48.3019 77.283 60.3773C76.7569 62.2366 75.5494 63.419 73.6603 63.9245C56.3521 64.0252 39.044 64.0252 21.7358 63.9245C19.4178 63.1908 18.2103 61.6059 18.1132 59.1698C13.2828 59.195 8.45257 59.1698 3.62264 59.0943C1.73363 58.5888 0.526087 57.4065 0 55.5471C0 38.2389 0 20.9309 0 3.62264C0.526087 1.76338 1.73363 0.580985 3.62264 0.0754754C15.6981 -0.0251585 27.7736 -0.0251585 39.849 0.0754754C41.7358 0.553468 42.9182 1.73585 43.3962 3.62264C43.4717 9.25766 43.4969 14.8928 43.4717 20.5283C53.5346 20.5031 63.5975 20.5283 73.6603 20.6038C75.5494 21.1093 76.7569 22.2916 77.283 24.1509ZM4.83019 4.83019C6.44025 4.83019 8.0503 4.83019 9.66037 4.83019C9.63522 8.75502 9.66037 12.6795 9.73584 16.6038C10.1595 17.6584 10.9394 18.1615 12.0755 18.1132C13.2115 18.1615 13.9914 17.6584 14.4151 16.6038C14.4906 12.6795 14.5157 8.75502 14.4906 4.83019C22.5408 4.83019 30.5912 4.83019 38.6415 4.83019C38.6415 10.0629 38.6415 15.2955 38.6415 20.5283C33.006 20.5031 27.3708 20.5283 21.7358 20.6038C19.849 21.0818 18.6667 22.2641 18.1887 24.1509C18.1132 34.2137 18.088 44.2767 18.1132 54.3396C13.6855 54.3396 9.25785 54.3396 4.83019 54.3396C4.83019 37.8365 4.83019 21.3333 4.83019 4.83019ZM22.9434 25.3585C39.4465 25.3585 55.9497 25.3585 72.4528 25.3585C72.4528 26.9686 72.4528 28.5786 72.4528 30.1887C55.9497 30.1887 39.4465 30.1887 22.9434 30.1887C22.9434 28.5786 22.9434 26.9686 22.9434 25.3585ZM22.9434 35.0188C39.4465 35.0188 55.9497 35.0188 72.4528 35.0188C72.4528 36.629 72.4528 38.2389 72.4528 39.849C55.9497 39.849 39.4465 39.849 22.9434 39.849C22.9434 38.2389 22.9434 36.629 22.9434 35.0188ZM22.9434 44.6792C39.4465 44.6792 55.9497 44.6792 72.4528 44.6792C72.4528 46.2893 72.4528 47.8993 72.4528 49.5094C70.9424 49.4843 69.433 49.5094 67.9245 49.5849C66.8698 50.0086 66.3667 50.7883 66.415 51.9245C66.3667 53.0606 66.8698 53.8404 67.9245 54.2641C69.433 54.3396 70.9424 54.3646 72.4528 54.3396C72.4528 55.9497 72.4528 57.5597 72.4528 59.1698C55.9497 59.1698 39.4465 59.1698 22.9434 59.1698C22.9434 54.3396 22.9434 49.5094 22.9434 44.6792Z" fill="#262626"/>
<path opacity="0.937" fill-rule="evenodd" clip-rule="evenodd" d="M29.283 49.5094C32.1928 49.375 33.174 50.6831 32.2263 53.4339C31.178 54.4255 29.9957 54.6016 28.6792 53.9622C27.6876 52.9139 27.5115 51.7316 28.1509 50.415C28.47 50.0194 28.8473 49.7175 29.283 49.5094Z" fill="#262626"/>
</svg>
