<svg width="64" height="64" viewBox="0 0 64 64" fill="none" xmlns="http://www.w3.org/2000/svg">
<path opacity="0.976" fill-rule="evenodd" clip-rule="evenodd" d="M31.996 0.00926C41.4762 -0.0154327 50.9563 0.00926 60.4363 0.0833233C62.2225 0.536383 63.3828 1.64733 63.9172 3.41617C64.016 22.4257 64.016 41.4354 63.9172 60.4449C63.3456 62.2015 62.1852 63.362 60.4363 63.9259C50.9562 64.0247 41.4761 64.0247 31.996 63.9259C30.247 63.362 29.0866 62.2015 28.515 60.4449C28.4409 56.1002 28.4162 51.7551 28.4409 47.4098C28.836 47.4098 29.2309 47.4098 29.6259 47.4098C29.5606 51.6609 29.6347 55.9072 29.8481 60.1487C30.3969 61.7342 31.5079 62.5982 33.181 62.7409C41.8711 62.8397 50.5611 62.8397 59.2513 62.7409C61.3693 62.4497 62.5296 61.2401 62.7322 59.1118C62.831 40.991 62.831 22.8701 62.7322 4.74931C62.658 3.09468 61.8433 1.98373 60.2881 1.41646C55.6017 1.24757 50.911 1.17351 46.2161 1.19427C41.5212 1.17351 36.8305 1.24757 32.1441 1.41646C30.98 1.79065 30.2146 2.55597 29.8481 3.71243C29.6347 8.00325 29.5606 12.2989 29.6259 16.5994C29.2309 16.5994 28.836 16.5994 28.4409 16.5994C28.4162 12.2047 28.4409 7.81032 28.515 3.41617C29.0759 1.64521 30.2364 0.509572 31.996 0.00926Z" fill="#262626"/>
<path opacity="0.98" fill-rule="evenodd" clip-rule="evenodd" d="M41.6235 3.56431C44.6852 3.53963 47.7465 3.56431 50.8074 3.63837C51.0048 3.98399 51.0048 4.32963 50.8074 4.67526C47.7461 4.77401 44.6849 4.77401 41.6235 4.67526C41.4341 4.3053 41.4341 3.93498 41.6235 3.56431Z" fill="#262626"/>
<path opacity="0.974" fill-rule="evenodd" clip-rule="evenodd" d="M16.4421 9.48938C17.6764 9.48938 18.9109 9.48938 20.1452 9.48938C20.1452 18.5744 20.1452 27.6596 20.1452 36.7447C18.5709 36.6422 17.0403 36.8396 15.5533 37.3372C15.3101 38.4195 15.4336 39.4564 15.9236 40.4478C16.2107 40.8339 16.581 41.1054 17.0346 41.2625C23.5961 41.4335 30.163 41.5075 36.7354 41.4847C43.0555 41.46 49.3755 41.4354 55.6956 41.4107C56.3622 38.9666 57.9175 37.4112 60.3616 36.7447C60.4837 37.2456 60.4589 37.7395 60.2875 38.2259C58.2327 38.9969 57.1465 40.4782 57.0288 42.6697C43.5986 42.6945 30.1684 42.6697 16.7383 42.5957C14.8038 41.8645 13.9398 40.4573 14.1461 38.3741C12.6121 40.6284 12.9329 42.5788 15.1089 44.2251C15.939 44.6828 16.8278 44.9297 17.7752 44.9657C32.0447 45.0398 46.3142 45.0645 60.5838 45.0398C60.5838 45.4348 60.5838 45.8297 60.5838 46.2248C40.3892 46.2248 20.1945 46.2248 0 46.2248C0 36.7447 0 27.2646 0 17.7845C3.95005 17.7845 7.90008 17.7845 11.8501 17.7845C11.8255 16.4504 11.8501 15.1173 11.9242 13.7851C12.594 11.4608 14.1 10.0289 16.4421 9.48938ZM17.7752 10.6744C18.1702 10.6744 18.5652 10.6744 18.9602 10.6744C18.9602 18.9695 18.9602 27.2646 18.9602 35.5597C16.6831 35.2407 14.7327 35.8826 13.1092 37.4853C13.0104 29.7334 13.0104 21.9813 13.1092 14.2294C13.8975 12.0223 15.4529 10.8373 17.7752 10.6744ZM1.18501 18.9695C4.74005 18.9695 8.29509 18.9695 11.8501 18.9695C11.8501 19.7594 11.8501 20.5496 11.8501 21.3395C10.6158 21.3395 9.3813 21.3395 8.14697 21.3395C7.94947 24.2032 6.41882 25.734 3.55504 25.9314C3.55504 29.9802 3.55504 34.0291 3.55504 38.0778C6.41882 38.2753 7.94947 39.806 8.14697 42.6697C9.48381 42.6206 10.8169 42.67 12.1464 42.8179C12.5637 43.6269 13.1067 44.3428 13.7758 44.9657C9.5792 45.0398 5.38223 45.0645 1.18501 45.0398C1.18501 36.3496 1.18501 27.6596 1.18501 18.9695ZM9.4801 22.5245C10.2701 22.5245 11.0602 22.5245 11.8501 22.5245C11.8501 28.8446 11.8501 35.1646 11.8501 41.4847C11.0585 41.5093 10.2686 41.4846 9.4801 41.4107C8.81353 38.9666 7.2582 37.4112 4.81412 36.7447C4.71536 33.5847 4.71536 30.4246 4.81412 27.2646C7.29173 26.5891 8.84706 25.0092 9.4801 22.5245Z" fill="#262626"/>
<path fill-rule="evenodd" clip-rule="evenodd" d="M21.3301 17.7844C34.3652 17.7844 47.4004 17.7844 60.4355 17.7844C60.4355 18.1795 60.4355 18.5744 60.4355 18.9694C47.4004 18.9694 34.3652 18.9694 21.3301 18.9694C21.3301 18.5744 21.3301 18.1795 21.3301 17.7844Z" fill="#262626"/>
<path opacity="0.976" fill-rule="evenodd" clip-rule="evenodd" d="M21.3301 21.3395C33.2295 21.3395 45.1291 21.3395 57.0286 21.3395C57.1464 23.531 58.2326 25.0123 60.2874 25.7833C60.4588 26.2697 60.4835 26.7636 60.3614 27.2645C57.9174 26.598 56.362 25.0426 55.6955 22.5986C44.2404 22.5245 32.7853 22.4998 21.3301 22.5245C21.3301 22.1294 21.3301 21.7345 21.3301 21.3395Z" fill="#262626"/>
<path opacity="0.876" fill-rule="evenodd" clip-rule="evenodd" d="M30.6628 23.7095C35.276 23.5058 38.0657 25.6784 39.0319 30.2271C39.6464 33.9656 38.4861 37.0022 35.551 39.3369C30.8894 41.3643 27.5071 40.0557 25.4043 35.4115C24.1162 31.4553 24.9309 28.0237 27.8484 25.1167C28.7191 24.4838 29.6573 24.0148 30.6628 23.7095ZM30.8109 25.0426C34.2903 24.8461 36.5369 26.4261 37.5507 29.7827C38.0303 31.9502 37.7835 34.024 36.81 36.004C35.9614 35.2711 34.9986 34.7526 33.9216 34.4487C35.3569 33.1544 35.8754 31.5497 35.4769 29.6346C34.5526 26.8639 32.7503 26.0492 30.0703 27.1905C28.6066 28.4741 28.0882 30.0788 28.5149 32.0046C28.7146 33.0209 29.2331 33.8356 30.0703 34.4487C28.9933 34.7526 28.0304 35.2711 27.1818 36.004C26.2083 34.024 25.9615 31.9502 26.4412 29.7827C27.1152 27.4555 28.5718 25.8756 30.8109 25.0426ZM31.2553 28.0052C32.7225 27.7676 33.6853 28.3601 34.1438 29.7827C34.5206 31.4193 34.0267 32.7032 32.6625 33.634C32.5637 34.2758 32.5637 34.9178 32.6625 35.5596C33.4782 35.8193 34.2929 36.091 35.1066 36.3743C35.4818 36.5273 35.7286 36.799 35.8472 37.189C34.358 38.8618 32.531 39.3803 30.3665 38.7444C29.479 38.4229 28.7383 37.9045 28.1446 37.189C28.2633 36.799 28.5101 36.5273 28.8853 36.3743C29.6989 36.091 30.5136 35.8193 31.3294 35.5596C31.4282 34.9178 31.4282 34.2758 31.3294 33.634C29.9651 32.7032 29.4713 31.4193 29.8481 29.7827C30.1325 29.0308 30.6015 28.4383 31.2553 28.0052Z" fill="#262626"/>
<path opacity="0.864" fill-rule="evenodd" clip-rule="evenodd" d="M47.5486 29.0421C50.5334 28.7434 51.8418 30.0765 51.474 33.0415C50.6826 34.7083 49.3742 35.3255 47.5486 34.8931C45.8819 34.1017 45.2647 32.7933 45.6971 30.9678C46.0456 30.0516 46.6628 29.4098 47.5486 29.0421ZM47.993 30.3753C49.5955 30.2741 50.3114 31.0147 50.1409 32.5972C49.6906 33.5012 48.9745 33.822 47.993 33.56C47.089 33.1097 46.7682 32.3936 47.0302 31.4121C47.2811 30.9888 47.6021 30.6432 47.993 30.3753Z" fill="#262626"/>
</svg>
