<svg width="71" height="64" viewBox="0 0 71 64" fill="none" xmlns="http://www.w3.org/2000/svg">
<path opacity="0.954" fill-rule="evenodd" clip-rule="evenodd" d="M70.6036 21.1138C70.6036 23.6419 70.6036 26.1701 70.6036 28.6982C69.9356 29.4191 69.2691 29.4191 68.6041 28.6982C68.5581 26.4918 68.5121 24.2855 68.4662 22.0791C68.3972 21.4586 68.0525 21.1138 67.4319 21.0449C45.8221 20.9078 24.2181 20.9537 2.62005 21.1828C2.30736 21.3976 2.14647 21.6963 2.13741 22.0791C2.06846 30.7206 2.04548 39.3621 2.06846 48.0038C24.2241 48.0038 46.3795 48.0038 68.5351 48.0038C68.5121 42.8095 68.5351 37.6153 68.6041 32.4214C68.7961 32.0262 69.1179 31.8424 69.5693 31.8698C70.0335 31.8602 70.3782 32.044 70.6036 32.4214C70.6036 42.2121 70.6036 52.0029 70.6036 61.7936C70.2152 62.8482 69.4797 63.5608 68.3972 63.931C49.2754 64.023 30.1537 64.023 11.0318 63.931C10.2496 63.11 10.3416 62.4205 11.3076 61.8626C30.1537 61.8166 48.9996 61.7706 67.8456 61.7247C68.2033 61.54 68.4102 61.2412 68.4662 60.8283C68.5351 59.5881 68.558 58.347 68.5351 57.1051C46.3795 57.1051 24.2241 57.1051 2.06846 57.1051C2.01343 58.5389 2.08238 59.964 2.27531 61.3799C2.39976 61.5455 2.56065 61.6605 2.75795 61.7247C4.33062 61.7338 5.89347 61.8257 7.44647 62.0005C8.03658 62.6945 7.9906 63.3381 7.30857 63.931C5.60784 64.023 3.90709 64.023 2.20636 63.931C1.12384 63.5608 0.388387 62.8482 0 61.7936C0 48.1877 0 34.5819 0 20.9759C0.446387 20.0014 1.18184 19.3349 2.20636 18.9764C9.10109 18.9075 15.996 18.8844 22.891 18.9075C22.891 17.2068 22.891 15.5059 22.891 13.8052C20.5698 13.2248 18.2714 12.5584 15.9961 11.8057C15.6915 11.5474 15.4387 11.2486 15.2377 10.9094C15.1918 9.80621 15.1457 8.70303 15.0998 7.59985C12.7909 6.56705 11.9635 4.82034 12.6176 2.35974C13.532 0.489009 15.0259 -0.269428 17.0993 0.0844309C18.9964 0.626741 20.0076 1.89081 20.133 3.87661C20.0747 4.98098 19.661 5.92328 18.892 6.70352C18.4587 7.10403 17.953 7.35685 17.3751 7.46195C17.3323 8.32486 17.3784 9.17522 17.513 10.0131C19.7194 10.6566 21.9257 11.3001 24.1321 11.9436C24.5772 12.1592 24.876 12.5039 25.0284 12.9779C25.0974 14.9538 25.1204 16.9304 25.0974 18.9075C28.1311 18.9075 31.1649 18.9075 34.1986 18.9075C34.1986 15.0922 34.1986 11.2772 34.1986 7.46195C32.0946 6.75412 31.1982 5.28323 31.5096 3.04923C32.3567 0.545091 34.0804 -0.397218 36.6808 0.222328C39.0628 1.44736 39.7293 3.30897 38.6803 5.80718C38.1702 6.70909 37.4118 7.26068 36.405 7.46195C36.405 11.2772 36.405 15.0922 36.405 18.9075C39.4387 18.9075 42.4725 18.9075 45.5062 18.9075C45.4832 16.9304 45.5062 14.9538 45.5752 12.9779C45.9272 12.2604 46.5018 11.8237 47.2989 11.6678C49.2294 11.1162 51.16 10.5646 53.0906 10.0131C53.2252 9.17522 53.2712 8.32486 53.2285 7.46195C51.0512 6.64825 50.2008 5.08541 50.6774 2.77343C51.7188 0.265311 53.5345 -0.539087 56.1243 0.360226C58.3201 1.81127 58.8027 3.71885 57.5722 6.08298C57.0248 6.79229 56.3353 7.29792 55.5038 7.59985C55.4579 8.70303 55.4118 9.80621 55.3659 10.9094C55.1648 11.2486 54.9121 11.5474 54.6074 11.8057C52.3439 12.5986 50.0455 13.2651 47.7126 13.8052C47.7126 15.5059 47.7126 17.2068 47.7126 18.9075C54.6076 18.8844 61.5025 18.9075 68.3972 18.9764C69.4797 19.3467 70.2152 20.0592 70.6036 21.1138ZM15.7203 2.22184C17.508 2.23453 18.1286 3.06192 17.5819 4.704C16.5039 5.85849 15.5386 5.76657 14.6861 4.42821C14.4475 3.40685 14.7923 2.6714 15.7203 2.22184ZM34.7502 2.22184C36.2177 2.14971 36.9302 2.8392 36.8876 4.29031C36.3324 5.44061 35.482 5.73939 34.3365 5.18664C33.3436 4.04172 33.4815 3.05346 34.7502 2.22184ZM53.918 2.22184C55.6461 2.23296 56.2666 3.06034 55.7796 4.704C54.3239 5.95068 53.2897 5.65191 52.6769 3.80767C52.8127 3.05241 53.2264 2.52381 53.918 2.22184ZM2.06846 50.2102C24.2241 50.2102 46.3795 50.2102 68.5351 50.2102C68.5351 51.773 68.5351 53.3359 68.5351 54.8987C46.3795 54.8987 24.2241 54.8987 2.06846 54.8987C2.06846 53.3359 2.06846 51.773 2.06846 50.2102Z" fill="#262626"/>
<path opacity="0.922" fill-rule="evenodd" clip-rule="evenodd" d="M56.1242 25.1129C56.9955 24.9976 57.7769 25.2044 58.4685 25.7334C59.6865 26.9514 60.9047 28.1696 62.1228 29.3877C63.0339 30.5128 63.0798 31.662 62.2607 32.8351C60.9507 34.1451 59.6406 35.4552 58.3306 36.7652C57.2682 37.4078 56.211 37.4078 55.159 36.7652C53.803 35.4093 52.4469 34.0532 51.091 32.6972C50.4227 31.606 50.4688 30.5488 51.2289 29.5256C52.5389 28.2155 53.8489 26.9055 55.159 25.5955C55.4934 25.4282 55.8152 25.2674 56.1242 25.1129ZM56.5379 27.3192C56.734 27.348 56.9178 27.417 57.0895 27.5261C58.3185 28.6855 59.4676 29.9036 60.537 31.1803C59.3925 32.5777 58.1284 33.8648 56.7448 35.0415C55.3945 33.8294 54.0845 32.5653 52.8147 31.2493C54.0336 29.9155 55.2746 28.6055 56.5379 27.3192Z" fill="#262626"/>
<path opacity="0.936" fill-rule="evenodd" clip-rule="evenodd" d="M9.65291 25.6644C13.6607 25.5988 17.6597 25.6677 21.65 25.8712C22.1146 26.1974 22.4134 26.6341 22.5463 27.1813C22.6383 29.8933 22.6383 32.6052 22.5463 35.3172C22.2267 36.1789 21.6061 36.6616 20.6847 36.7651C17.1914 36.8571 13.6979 36.8571 10.2045 36.7651C9.23324 36.7282 8.6127 36.2455 8.34288 35.3172C8.25094 32.6052 8.25094 29.8933 8.34288 27.1813C8.56718 26.4755 9.00386 25.9698 9.65291 25.6644ZM10.4803 27.8708C13.7898 27.8708 17.0994 27.8708 20.4089 27.8708C20.4089 30.123 20.4089 32.3755 20.4089 34.6277C17.0994 34.6277 13.7898 34.6277 10.4803 34.6277C10.4803 32.3755 10.4803 30.123 10.4803 27.8708Z" fill="#262626"/>
</svg>
