<svg width="65" height="64" viewBox="0 0 65 64" fill="none" xmlns="http://www.w3.org/2000/svg">
<path opacity="0.953" fill-rule="evenodd" clip-rule="evenodd" d="M14.7706 0.0523066C21.8064 -0.415017 27.2825 2.24907 31.1991 8.04456C33.8947 12.9433 34.2753 18.0177 32.3408 23.2679C28.8031 30.6096 22.9464 34.0137 14.7706 33.4802C9.02639 32.6382 4.73426 29.6992 1.89416 24.6634C-0.0165466 20.8188 -0.481704 16.8015 0.498685 12.6116C2.67277 5.46764 7.43006 1.28122 14.7706 0.0523066ZM16.9272 3.09697C23.9913 3.67924 28.4103 7.4005 30.1842 14.2608C31.0281 21.1371 28.385 26.1481 22.2554 29.2938C16.1211 31.5683 10.8141 30.3209 6.3343 25.5514C3.14838 21.4479 2.38722 16.9232 4.0508 11.9773C6.51241 6.35942 10.8046 3.39933 16.9272 3.09697Z" fill="#262626"/>
<path opacity="0.945" fill-rule="evenodd" clip-rule="evenodd" d="M15.4049 6.01477C16.3775 6.01477 17.3501 6.01477 18.3227 6.01477C18.2811 6.6966 18.3233 7.37319 18.4496 8.04455C20.3758 8.49043 21.5176 9.67447 21.8748 11.5967C21.008 11.7728 20.1622 12.0265 19.3376 12.3578C18.4147 10.7096 17.0614 10.2233 15.278 10.8989C14.5745 11.3724 14.3419 12.0278 14.5803 12.8653C14.7653 13.1773 14.9978 13.4523 15.278 13.6899C16.4576 14.3371 17.6838 14.8868 18.957 15.3391C22.739 17.1703 23.6481 19.9401 21.6845 23.6485C20.7685 24.6245 19.6478 25.2166 18.3227 25.4245C18.3227 26.1011 18.3227 26.7778 18.3227 27.4543C17.3501 27.4543 16.3775 27.4543 15.4049 27.4543C15.426 26.7764 15.4048 26.0998 15.3415 25.4245C13.1549 24.8026 11.6537 23.4284 10.8379 21.3015C11.7064 20.906 12.5944 20.5466 13.502 20.2232C13.9825 21.0204 14.5745 21.7181 15.278 22.3164C16.4655 22.9024 17.6496 22.9024 18.8301 22.3164C20.0141 21.1324 20.0141 19.9483 18.8301 18.7643C16.8889 17.7937 14.9436 16.8211 12.9945 15.8465C11.3858 14.1875 11.0686 12.3057 12.0431 10.2012C12.8485 8.98483 13.9691 8.26595 15.4049 8.04455C15.4049 7.36796 15.4049 6.69136 15.4049 6.01477Z" fill="#262626"/>
<path opacity="0.945" fill-rule="evenodd" clip-rule="evenodd" d="M37.4789 6.90283C38.4029 6.83499 39.2909 6.983 40.1429 7.34685C48.7809 10.4452 54.4262 16.3865 57.0789 25.1708C57.3953 26.7987 56.7399 27.5387 55.1126 27.3909C54.7705 27.3034 54.4956 27.1131 54.288 26.82C51.7809 18.0968 46.1779 12.4515 37.4789 9.88407C36.1542 8.88128 36.1542 7.88754 37.4789 6.90283Z" fill="#262626"/>
<path opacity="0.953" fill-rule="evenodd" clip-rule="evenodd" d="M45.2173 30.499C52.2532 30.0316 57.7293 32.6957 61.6458 38.4912C63.9718 42.5518 64.6061 46.8651 63.5488 51.4311C61.3963 58.5735 56.639 62.7388 49.2769 63.9269C41.7582 64.5131 36.1129 61.5741 32.3409 55.11C30.4303 51.2655 29.9651 47.2482 30.9454 43.0582C33.1195 35.9143 37.8768 31.7279 45.2173 30.499ZM47.374 33.5436C54.4381 34.1259 58.8571 37.8471 60.631 44.7074C61.4748 51.5838 58.8318 56.5948 52.7021 59.7405C46.5679 62.015 41.2608 60.7675 36.7811 55.9981C33.5952 51.8946 32.834 47.3699 34.4976 42.4239C36.9592 36.8061 41.2513 33.8459 47.374 33.5436Z" fill="#262626"/>
<path opacity="0.948" fill-rule="evenodd" clip-rule="evenodd" d="M7.91984 36.5883C8.65912 36.4611 9.27228 36.6726 9.75932 37.2226C12.272 46.1631 18.002 51.8929 26.949 54.4123C27.4317 54.9313 27.5798 55.5444 27.393 56.2518C27.0784 56.9272 26.5499 57.2232 25.8073 57.1398C18.5748 55.3837 13.0986 51.2818 9.37874 44.8343C8.20165 42.7403 7.37705 40.5203 6.90495 38.1741C6.8623 37.3938 7.2006 36.8652 7.91984 36.5883Z" fill="#262626"/>
<path opacity="0.957" fill-rule="evenodd" clip-rule="evenodd" d="M43.4411 38.6181C45.5559 38.5969 47.6703 38.6181 49.7842 38.6815C52.921 39.0699 54.4858 40.846 54.478 44.0097C54.3727 46.9067 52.8926 48.6403 50.0379 49.211C48.8123 49.2744 47.5859 49.2954 46.3589 49.2744C46.3589 49.8664 46.3589 50.4584 46.3589 51.0504C47.5429 51.0504 48.727 51.0504 49.911 51.0504C49.911 51.8116 49.911 52.5728 49.911 53.3339C48.727 53.3339 47.5429 53.3339 46.3589 53.3339C46.3589 54.1797 46.3589 55.0254 46.3589 55.8712C45.3863 55.8712 44.4137 55.8712 43.4411 55.8712C43.4411 55.0254 43.4411 54.1797 43.4411 53.3339C42.849 53.3339 42.2571 53.3339 41.665 53.3339C41.665 52.5728 41.665 51.8116 41.665 51.0504C42.2571 51.0504 42.849 51.0504 43.4411 51.0504C43.4411 50.4584 43.4411 49.8664 43.4411 49.2744C42.849 49.2744 42.2571 49.2744 41.665 49.2744C41.665 48.3864 41.665 47.4983 41.665 46.6103C42.2571 46.6103 42.849 46.6103 43.4411 46.6103C43.4411 43.9462 43.4411 41.2821 43.4411 38.6181ZM46.3589 41.409C46.3589 43.1428 46.3589 44.8765 46.3589 46.6103C47.2902 46.6314 48.2205 46.6103 49.1498 46.5469C50.6016 46.3213 51.4052 45.4755 51.5602 44.0097C51.4984 42.9113 50.991 42.1077 50.0379 41.5993C48.82 41.4228 47.5936 41.3594 46.3589 41.409Z" fill="#262626"/>
</svg>
