<svg width="150" height="64" viewBox="0 0 150 64" fill="none" xmlns="http://www.w3.org/2000/svg">
<path opacity="0.92" fill-rule="evenodd" clip-rule="evenodd" d="M29.5898 0C30.0782 0 30.5663 0 31.0547 0C31.2563 5.01789 29.2054 8.77683 24.9023 11.2771C23.4974 11.8726 22.0326 12.1166 20.5078 12.0094C20.5149 7.35592 22.468 3.79205 26.3672 1.31811C27.4704 0.861456 28.5446 0.422087 29.5898 0Z" fill="#262626"/>
<path opacity="0.958" fill-rule="evenodd" clip-rule="evenodd" d="M49.8047 3.51493C56.3484 3.46601 62.8913 3.51493 69.4336 3.66139C76.8363 4.52138 81.3773 8.57353 83.0566 15.8173C84.3935 23.4403 81.8054 29.2496 75.293 33.2456C73.7013 33.9609 72.041 34.4489 70.3125 34.7101C66.0167 34.8566 61.7197 34.9055 57.4219 34.8566C57.4219 40.2266 57.4219 45.5968 57.4219 50.9668C54.8827 50.9668 52.3438 50.9668 49.8047 50.9668C49.8047 35.1495 49.8047 19.3322 49.8047 3.51493ZM57.4219 9.95901C60.646 9.91009 63.8687 9.95901 67.0898 10.1055C72.5473 10.6799 75.3794 13.7068 75.5859 19.1858C75.513 24.1389 73.0717 27.1659 68.2617 28.266C64.6497 28.4125 61.0365 28.4614 57.4219 28.4125C57.4219 22.2613 57.4219 16.1102 57.4219 9.95901Z" fill="#262626"/>
<path opacity="0.981" fill-rule="evenodd" clip-rule="evenodd" d="M0 31.6346C0 29.1938 0 26.7526 0 24.3118C1.65452 16.3592 6.53733 12.5024 14.6484 12.7417C16.7958 13.4087 18.9442 14.0434 21.0938 14.6457C23.618 13.8862 26.1571 13.1539 28.7109 12.4488C33.6595 11.8656 37.5656 13.5742 40.4297 17.5748C34.7839 21.8285 33.5634 27.1009 36.7676 33.3921C38.0982 35.3016 39.8074 36.7661 41.8945 37.7858C40.5929 41.5626 38.6886 44.98 36.1816 48.0377C34.1628 50.7937 31.4774 51.8189 28.125 51.1133C26.127 50.154 24.0274 49.6171 21.8262 49.5023C21.0938 49.5512 20.3613 49.5998 19.6289 49.6487C17.5922 50.4961 15.4927 51.1309 13.3301 51.5527C12.0053 51.403 10.7846 50.9636 9.66797 50.2346C4.38756 45.0942 1.1649 38.8944 0 31.6346Z" fill="#262626"/>
<path opacity="0.946" fill-rule="evenodd" clip-rule="evenodd" d="M97.5584 15.8173C102.634 15.1026 107.224 16.2253 111.328 19.1858C113.093 20.9098 114.119 23.0091 114.404 25.4834C114.551 33.9773 114.599 42.4717 114.551 50.9668C112.207 50.9668 109.863 50.9668 107.519 50.9668C107.568 49.2067 107.519 47.4492 107.373 45.6944C105.662 48.3827 103.269 50.1891 100.195 51.1132C95.0095 52.4662 90.5661 51.2456 86.865 47.4518C84.3399 43.3429 84.3399 39.2421 86.865 35.1495C89.664 32.4251 93.0332 31.0095 96.9724 30.9023C100.4 30.7186 103.818 30.4746 107.226 30.17C107.904 24.9916 105.658 22.16 100.488 21.6755C96.8072 21.6571 94.3659 23.3659 93.1638 26.8015C90.92 26.9479 88.6738 26.9966 86.4256 26.9479C86.5955 22.848 88.4509 19.7725 91.992 17.7212C93.8128 16.8706 95.6684 16.2358 97.5584 15.8173ZM105.469 35.4424C106.054 35.4424 106.64 35.4424 107.226 35.4424C107.672 41.6835 104.791 45.1006 98.5838 45.6944C93.7105 45.6156 91.8549 43.2723 93.0174 38.6644C93.8107 37.6088 94.8361 36.8765 96.0935 36.4676C99.247 36.0057 102.372 35.6639 105.469 35.4424Z" fill="#262626"/>
<path opacity="0.948" fill-rule="evenodd" clip-rule="evenodd" d="M150 16.4031C150 16.7935 150 17.1843 150 17.5747C145.772 29.0338 141.621 40.5549 137.549 52.1384C136.404 55.9431 134.402 59.2137 131.543 61.951C128.14 63.6803 124.526 64.3151 120.703 63.8549C120.703 61.8045 120.703 59.7541 120.703 57.7038C125.929 58.5819 128.859 56.3851 129.492 51.1132C125.536 39.5892 121.435 28.1166 117.188 16.696C119.891 16.3102 122.576 16.3102 125.244 16.696C128.076 25.7763 130.908 34.8566 133.74 43.9369C136.65 34.8671 139.531 25.7868 142.383 16.696C144.914 16.4037 147.454 16.3061 150 16.4031Z" fill="#262626"/>
</svg>
