<svg width="64" height="64" viewBox="0 0 64 64" fill="none" xmlns="http://www.w3.org/2000/svg">
<path opacity="0.957" fill-rule="evenodd" clip-rule="evenodd" d="M3.625 0C22.4584 0 41.2916 0 60.125 0C62.3265 0.767119 63.5348 2.32961 63.75 4.6875C63.1486 13.7879 62.607 22.892 62.125 32C62.4154 36.9574 62.6446 41.9156 62.8125 46.875C62.4064 47.3442 61.9272 47.4484 61.375 47.1875C61.1266 47.0226 60.9808 46.7935 60.9375 46.5C60.6592 41.9999 60.3885 37.4999 60.125 33C46.3749 33.0209 32.6249 33 18.875 32.9375C18.2845 32.6331 18.097 32.1539 18.3125 31.5C18.4643 31.3064 18.6518 31.1606 18.875 31.0625C32.6249 31 46.3749 30.9791 60.125 31C60.6356 22.2472 61.1772 13.4972 61.75 4.75C61.5247 3.12899 60.6081 2.19149 59 1.9375C40.9166 1.85416 22.8334 1.85416 4.75 1.9375C3.17053 2.18364 2.25385 3.10031 2 4.6875C2.57017 13.4561 3.11185 22.227 3.625 31C7.50023 30.9791 11.3752 31 15.25 31.0625C15.8499 31.4464 15.9956 31.9673 15.6875 32.625C15.5746 32.7751 15.4289 32.8794 15.25 32.9375C11.3752 33 7.50023 33.0209 3.625 33C3.11185 41.773 2.57017 50.5439 2 59.3125C2.25385 60.8997 3.17053 61.8164 4.75 62.0625C13.7916 62.0834 22.8334 62.1041 31.875 62.125C41.1704 62.1446 50.462 62.0821 59.75 61.9375C60.9604 61.4551 61.627 60.5592 61.75 59.25C61.5419 56.6707 61.3753 54.0874 61.25 51.5C60.9449 50.0335 61.4866 49.5126 62.875 49.9375C63.0271 50.1435 63.1312 50.3726 63.1875 50.625C63.3908 53.668 63.5574 56.7098 63.6875 59.75C63.3464 61.8979 62.1589 63.3145 60.125 64C41.2916 64 22.4584 64 3.625 64C1.42356 63.2329 0.215227 61.6704 0 59.3125C0.601325 50.2121 1.14299 41.108 1.625 32C1.14299 22.892 0.601325 13.7879 0 4.6875C0.215227 2.32961 1.42356 0.767119 3.625 0ZM33.875 14.625C34.2109 14.6045 34.5443 14.6254 34.875 14.6875C35.2084 15.0209 35.2084 15.3541 34.875 15.6875C34.5607 15.844 34.2275 15.9065 33.875 15.875C33.875 15.4584 33.875 15.0416 33.875 14.625Z" fill="#262626"/>
<path opacity="0.933" fill-rule="evenodd" clip-rule="evenodd" d="M5.75 12.625C6.84373 12.5737 7.92705 12.6362 9 12.8125C10.5673 13.7792 10.9215 15.0917 10.0625 16.75C9.32412 17.6007 8.38662 17.9757 7.25 17.875C7.27074 18.5014 7.24992 19.1264 7.1875 19.75C6.81469 20.3835 6.29385 20.5294 5.625 20.1875C5.47483 20.0746 5.37065 19.9289 5.3125 19.75C5.22917 17.5834 5.22917 15.4166 5.3125 13.25C5.43717 13.0221 5.58299 12.8137 5.75 12.625ZM7.25 14.625C7.25 15.0416 7.25 15.4584 7.25 15.875C7.60248 15.9065 7.93582 15.844 8.25 15.6875C8.58334 15.3541 8.58334 15.0209 8.25 14.6875C7.91925 14.6254 7.58592 14.6045 7.25 14.625Z" fill="#262626"/>
<path opacity="0.937" fill-rule="evenodd" clip-rule="evenodd" d="M13.5 12.6249C14.3224 12.4422 14.8849 12.7338 15.1875 13.4999C15.8788 15.2819 16.5454 17.0736 17.1875 18.8749C17.3744 20.0636 16.8951 20.5011 15.75 20.1874C15.4075 19.8271 15.1575 19.4104 15 18.9374C14.3295 18.8338 13.6628 18.8546 13 18.9999C12.842 19.3281 12.6961 19.6614 12.5625 19.9999C11.8777 20.5627 11.2944 20.4793 10.8125 19.7499C10.7292 19.4999 10.7292 19.2499 10.8125 18.9999C11.5208 17.1249 12.2292 15.2499 12.9375 13.3749C13.0599 13.0664 13.2474 12.8164 13.5 12.6249ZM14 16.2499C13.9529 16.4697 13.8695 16.6781 13.75 16.8749C13.8986 16.9911 14.0653 17.0327 14.25 16.9999C14.2381 16.7142 14.1548 16.4642 14 16.2499Z" fill="#262626"/>
<path opacity="0.92" fill-rule="evenodd" clip-rule="evenodd" d="M20.2502 12.625C21.5264 12.4279 22.6305 12.7613 23.5627 13.625C23.8764 14.7701 23.4389 15.2494 22.2502 15.0625C21.7755 14.6643 21.2337 14.5393 20.6252 14.6875C20.5681 14.7393 20.5264 14.8018 20.5002 14.875C21.3487 15.2368 22.1821 15.6325 23.0002 16.0625C23.984 17.0463 24.1297 18.1505 23.4377 19.375C21.8641 20.6691 20.26 20.6899 18.6252 19.4375C18.1036 18.9796 18.0204 18.4589 18.3752 17.875C18.5706 17.6373 18.8206 17.5123 19.1252 17.5C19.6896 17.7888 20.2729 18.0596 20.8752 18.3125C21.2199 18.4103 21.5324 18.3478 21.8127 18.125C21.8982 17.9645 21.8774 17.8186 21.7502 17.6875C20.9021 17.3358 20.0687 16.9608 19.2502 16.5625C18.3779 15.6273 18.2737 14.6064 18.9377 13.5C19.332 13.1235 19.7695 12.8319 20.2502 12.625Z" fill="#262626"/>
<path opacity="0.921" fill-rule="evenodd" clip-rule="evenodd" d="M27.125 12.625C28.485 12.3909 29.6309 12.7659 30.5625 13.75C30.6811 14.8396 30.202 15.2771 29.125 15.0625C28.5763 14.582 27.993 14.5195 27.375 14.875C28.1571 15.2402 28.9487 15.5945 29.75 15.9375C31.1237 17.2094 31.1653 18.501 29.875 19.8125C28.1061 20.717 26.5436 20.4461 25.1875 19C24.9795 17.9167 25.417 17.4375 26.5 17.5625C27.0879 18.2311 27.7962 18.4395 28.625 18.1875C28.795 17.9452 28.7534 17.737 28.5 17.5625C27.6777 17.3022 26.8861 16.969 26.125 16.5625C25.125 15.4375 25.125 14.3125 26.125 13.1875C26.4499 12.9631 26.7832 12.7756 27.125 12.625Z" fill="#262626"/>
<path opacity="0.932" fill-rule="evenodd" clip-rule="evenodd" d="M32.5 12.625C33.5522 12.5742 34.5939 12.6367 35.625 12.8125C37.1554 13.7112 37.5512 14.9821 36.8125 16.625C36.0624 17.563 35.0832 17.9797 33.875 17.875C33.8958 18.5013 33.8749 19.1263 33.8125 19.75C33.4268 20.4065 32.9059 20.5315 32.25 20.125C32.1145 19.9793 32.0104 19.8127 31.9375 19.625C31.8542 17.5 31.8542 15.375 31.9375 13.25C32.0657 12.9766 32.2532 12.7682 32.5 12.625ZM33.875 14.625C33.875 15.0416 33.875 15.4583 33.875 15.875C34.2275 15.9065 34.5608 15.844 34.875 15.6875C35.2084 15.3541 35.2084 15.0208 34.875 14.6875C34.5443 14.6253 34.2109 14.6045 33.875 14.625Z" fill="#262626"/>
<path opacity="0.924" fill-rule="evenodd" clip-rule="evenodd" d="M41.2502 12.625C43.5631 12.3112 45.1256 13.2278 45.9377 15.375C46.3855 18.3123 45.1355 19.979 42.1877 20.375C39.3481 19.9917 38.0981 18.3667 38.4377 15.5C38.8982 14.0605 39.8357 13.1021 41.2502 12.625ZM41.6252 14.625C40.2985 15.3833 40.0277 16.425 40.8127 17.75C42.3152 18.7768 43.3986 18.4436 44.0627 16.75C43.9808 15.2317 43.1683 14.5233 41.6252 14.625Z" fill="#262626"/>
<path opacity="0.939" fill-rule="evenodd" clip-rule="evenodd" d="M47.875 12.625C48.7927 12.6042 49.7093 12.625 50.625 12.6875C51.8975 13.1272 52.5017 14.0231 52.4375 15.375C52.3073 16.2818 51.8282 16.9276 51 17.3125C51.6288 17.9183 52.1288 18.6058 52.5 19.375C52.2504 20.2498 51.7088 20.5206 50.875 20.1875C50.3498 19.7041 49.8707 19.1833 49.4375 18.625C49.4527 19.1793 49.3068 19.6793 49 20.125C48.4062 20.5021 47.8854 20.4187 47.4375 19.875C47.3542 17.625 47.3542 15.375 47.4375 13.125C47.5238 12.8937 47.6695 12.727 47.875 12.625ZM49.375 14.625C49.375 14.9583 49.375 15.2916 49.375 15.625C49.8903 15.7007 50.2653 15.5132 50.5 15.0625C50.2282 14.6818 49.8532 14.5361 49.375 14.625Z" fill="#262626"/>
<path opacity="0.926" fill-rule="evenodd" clip-rule="evenodd" d="M53.8749 12.625C55.2505 12.6041 56.6255 12.625 57.9999 12.6875C58.7116 13.4203 58.6282 14.0453 57.7499 14.5625C57.4611 14.6246 57.1695 14.6454 56.8749 14.625C56.8957 16.3339 56.8749 18.0421 56.8124 19.75C56.4395 20.3835 55.9187 20.5294 55.2499 20.1875C55.0997 20.0746 54.9955 19.9289 54.9374 19.75C54.8749 18.0421 54.854 16.3339 54.8749 14.625C53.6409 14.7053 53.1616 14.1635 53.4374 13C53.5805 12.858 53.7264 12.733 53.8749 12.625Z" fill="#262626"/>
<path opacity="0.931" fill-rule="evenodd" clip-rule="evenodd" d="M9.25015 36C12.7088 35.9791 16.167 36 19.6252 36.0625C21.3799 36.5671 22.4424 37.713 22.8127 39.5C22.896 43.5416 22.896 47.5834 22.8127 51.625C21.948 56.2815 19.1563 58.7815 14.4377 59.125C9.3689 58.6813 6.57724 55.9313 6.06265 50.875C5.9444 46.9545 5.98606 43.0379 6.18765 39.125C6.64691 37.52 7.66775 36.4784 9.25015 36ZM9.62515 38C8.91918 38.2688 8.44 38.7688 8.18765 39.5C7.97128 41.079 7.95044 42.6623 8.12515 44.25C10.1183 43.7471 12.1183 43.268 14.1252 42.8125C15.3239 42.4639 16.5323 42.4221 17.7502 42.6875C18.7958 43.0859 19.8374 43.4816 20.8752 43.875C20.896 42.4994 20.8752 41.1244 20.8127 39.75C20.5923 38.9048 20.0714 38.3423 19.2502 38.0625C16.042 38 12.8338 37.9791 9.62515 38ZM15.6252 44.5C16.2187 44.4719 16.802 44.5344 17.3752 44.6875C18.5002 45.1666 19.6252 45.6459 20.7502 46.125C20.9257 48.1286 20.9048 50.1286 20.6877 52.125C19.626 55.519 17.3135 57.1649 13.7502 57.0625C10.8375 56.534 8.9833 54.8465 8.18765 52C8.0234 50.0873 7.9609 48.1705 8.00015 46.25C10.5704 45.728 13.112 45.1448 15.6252 44.5Z" fill="#262626"/>
<path opacity="0.933" fill-rule="evenodd" clip-rule="evenodd" d="M31.3753 36C39.542 35.9791 47.7088 36 55.8753 36.0625C56.2523 36.2536 56.4189 36.5661 56.3753 37C56.383 37.5136 56.133 37.8261 55.6253 37.9375C47.6669 38.0209 39.7086 38.0209 31.7503 37.9375C30.9811 37.7544 30.7103 37.2753 30.9378 36.5C31.024 36.2688 31.1698 36.102 31.3753 36Z" fill="#262626"/>
<path opacity="0.933" fill-rule="evenodd" clip-rule="evenodd" d="M31.3753 41.625C39.542 41.6041 47.7088 41.625 55.8753 41.6875C56.2523 41.8786 56.4189 42.1911 56.3753 42.625C56.383 43.1386 56.133 43.4511 55.6253 43.5625C47.6669 43.6459 39.7086 43.6459 31.7503 43.5625C30.9811 43.3794 30.7103 42.9003 30.9378 42.125C31.024 41.8938 31.1698 41.727 31.3753 41.625Z" fill="#262626"/>
<path opacity="0.887" fill-rule="evenodd" clip-rule="evenodd" d="M10.625 47.125C11.1736 47.0554 11.5694 47.2638 11.8125 47.75C11.8958 48.5 11.8958 49.25 11.8125 50C11.1326 50.8485 10.5076 50.8069 9.9375 49.875C9.85417 49.1666 9.85417 48.4584 9.9375 47.75C10.0758 47.4234 10.305 47.215 10.625 47.125Z" fill="#262626"/>
<path opacity="0.897" fill-rule="evenodd" clip-rule="evenodd" d="M17.75 47.125C18.2985 47.0554 18.6944 47.2638 18.9375 47.75C19.0209 48.5 19.0209 49.25 18.9375 50C18.2633 50.8526 17.6383 50.8109 17.0625 49.875C16.9792 49.2084 16.9792 48.5416 17.0625 47.875C17.1902 47.5188 17.4193 47.2688 17.75 47.125Z" fill="#262626"/>
<path opacity="0.933" fill-rule="evenodd" clip-rule="evenodd" d="M31.3753 47.25C39.542 47.2291 47.7088 47.25 55.8753 47.3125C56.2523 47.5036 56.4189 47.8161 56.3753 48.25C56.383 48.7636 56.133 49.0761 55.6253 49.1875C47.6669 49.2709 39.7086 49.2709 31.7503 49.1875C30.9811 49.0044 30.7103 48.5253 30.9378 47.75C31.024 47.5188 31.1698 47.352 31.3753 47.25Z" fill="#262626"/>
<path opacity="0.929" fill-rule="evenodd" clip-rule="evenodd" d="M38.625 51.25C40.502 50.99 41.7728 51.74 42.4375 53.5C42.5786 54.6602 42.2243 55.6394 41.375 56.4375C42.912 57.138 44.4952 57.263 46.125 56.8125C46.3186 56.6608 46.4643 56.4733 46.5625 56.25C47.1316 53.8145 48.2982 53.4812 50.0625 55.25C50.4317 55.8269 50.7442 56.431 51 57.0625C50.6868 58.0142 50.0827 58.2433 49.1875 57.75C48.9791 57.4167 48.7708 57.0834 48.5625 56.75C48.0311 58.2359 46.9686 59.0068 45.375 59.0625C43.3267 59.1945 41.3892 58.7987 39.5625 57.875C37.955 58.8548 36.2258 59.209 34.375 58.9375C33.772 58.4397 33.7303 57.8979 34.25 57.3125C35.3968 57.1664 36.5218 56.9164 37.625 56.5625C36.4151 55.2117 36.311 53.7742 37.3125 52.25C37.7248 51.8687 38.1623 51.5353 38.625 51.25ZM39.125 53.25C38.3912 54.1047 38.4955 54.8547 39.4375 55.5C39.9381 55.125 40.2923 54.6459 40.5 54.0625C40.2401 53.4473 39.7817 53.1764 39.125 53.25Z" fill="#262626"/>
<path opacity="0.901" fill-rule="evenodd" clip-rule="evenodd" d="M12.625 52.75C13.2387 52.8166 13.843 52.9416 14.4375 53.125C14.814 53.0967 15.1681 52.9926 15.5 52.8125C16.5208 52.6666 16.9583 53.1041 16.8125 54.125C16.397 54.677 15.8345 54.9895 15.125 55.0625C14.1506 55.2148 13.2338 55.0481 12.375 54.5625C11.8447 53.8717 11.928 53.2676 12.625 52.75Z" fill="#262626"/>
</svg>
