<svg width="59" height="55" viewBox="0 0 59 55" fill="none" xmlns="http://www.w3.org/2000/svg">
<path opacity="0.997" fill-rule="evenodd" clip-rule="evenodd" d="M58.5 18.1132C58.5 27.1698 58.5 36.2264 58.5 45.283C58.1052 46.6775 57.199 47.5642 55.7812 47.9434C42.7916 48.0189 29.8021 48.0189 16.8125 47.9434C15.0728 47.3931 14.1666 46.2044 14.0938 44.3773C10.4686 44.3962 6.84356 44.3773 3.21875 44.3207C1.80107 43.9416 0.894823 43.0548 0.5 41.6604C0.5 28.6792 0.5 15.6981 0.5 2.71698C0.894823 1.32254 1.80107 0.435738 3.21875 0.0566066C12.2812 -0.0188689 21.3438 -0.0188689 30.4062 0.0566066C31.8223 0.415101 32.7096 1.30189 33.0684 2.71698C33.125 6.94324 33.1439 11.1696 33.125 15.3962C40.6771 15.3773 48.2292 15.3962 55.7812 15.4528C57.199 15.832 58.1052 16.7187 58.5 18.1132ZM4.125 3.62264C5.33334 3.62264 6.54166 3.62264 7.75 3.62264C7.73113 6.56626 7.75 9.50966 7.80664 12.4528C8.1246 13.2438 8.70989 13.6211 9.5625 13.5849C10.4151 13.6211 11.0004 13.2438 11.3184 12.4528C11.375 9.50966 11.3939 6.56626 11.375 3.62264C17.4166 3.62264 23.4584 3.62264 29.5 3.62264C29.5 7.54721 29.5 11.4717 29.5 15.3962C25.2706 15.3773 21.0415 15.3962 16.8125 15.4528C15.3965 15.8114 14.5092 16.6981 14.1504 18.1132C14.0938 25.6603 14.0748 33.2075 14.0938 40.7547C10.7708 40.7547 7.44791 40.7547 4.125 40.7547C4.125 28.3774 4.125 16 4.125 3.62264ZM17.7188 19.0189C30.1041 19.0189 42.4896 19.0189 54.875 19.0189C54.875 20.2264 54.875 21.4339 54.875 22.6415C42.4896 22.6415 30.1041 22.6415 17.7188 22.6415C17.7188 21.4339 17.7188 20.2264 17.7188 19.0189ZM17.7188 26.2641C30.1041 26.2641 42.4896 26.2641 54.875 26.2641C54.875 27.4717 54.875 28.6792 54.875 29.8868C42.4896 29.8868 30.1041 29.8868 17.7188 29.8868C17.7188 28.6792 17.7188 27.4717 17.7188 26.2641ZM17.7188 33.5094C30.1041 33.5094 42.4896 33.5094 54.875 33.5094C54.875 34.717 54.875 35.9245 54.875 37.1321C53.7415 37.1133 52.6087 37.1321 51.4766 37.1887C50.6851 37.5064 50.3075 38.0913 50.3438 38.9434C50.3075 39.7955 50.6851 40.3803 51.4766 40.6981C52.6087 40.7547 53.7415 40.7735 54.875 40.7547C54.875 41.9623 54.875 43.1698 54.875 44.3773C42.4896 44.3773 30.1041 44.3773 17.7188 44.3773C17.7188 40.7547 17.7188 37.1321 17.7188 33.5094Z" fill="#262626"/>
<path opacity="0.937" fill-rule="evenodd" clip-rule="evenodd" d="M29.783 49.5094C32.6928 49.375 33.674 50.6831 32.7263 53.4339C31.678 54.4255 30.4957 54.6016 29.1792 53.9622C28.1876 52.9139 28.0115 51.7316 28.6509 50.415C28.97 50.0194 29.3473 49.7175 29.783 49.5094Z" fill="#262626"/>
</svg>
