<svg width="49" height="49" viewBox="0 0 49 49" fill="none" xmlns="http://www.w3.org/2000/svg">
<path opacity="0.976" fill-rule="evenodd" clip-rule="evenodd" d="M24.5003 0.345202C31.6114 0.326682 38.7225 0.345202 45.8335 0.400749C47.1733 0.740544 48.0437 1.57376 48.4445 2.90039C48.5187 17.1575 48.5187 31.4148 48.4445 45.6719C48.0158 46.9894 47.1453 47.8597 45.8335 48.2827C38.7224 48.3568 31.6113 48.3568 24.5003 48.2827C23.1884 47.8597 22.318 46.9894 21.8892 45.6719C21.8336 42.4134 21.8151 39.1546 21.8336 35.8956C22.13 35.8956 22.4262 35.8956 22.7225 35.8956C22.6735 39.0839 22.7291 42.2687 22.8892 45.4498C23.3008 46.6389 24.1342 47.2869 25.3892 47.3939C31.9077 47.468 38.4261 47.468 44.9446 47.3939C46.5333 47.1755 47.4037 46.2683 47.5557 44.6721C47.6298 31.0815 47.6298 17.4908 47.5557 3.90024C47.5 2.65927 46.8889 1.82605 45.7223 1.4006C42.207 1.27393 38.6885 1.21839 35.1669 1.23396C31.6452 1.21839 28.1267 1.27393 24.6114 1.4006C23.7382 1.68124 23.1641 2.25524 22.8892 3.12258C22.7291 6.3407 22.6735 9.56242 22.7225 12.7878C22.4262 12.7878 22.13 12.7878 21.8336 12.7878C21.8151 9.49176 21.8336 6.196 21.8892 2.90039C22.31 1.57217 23.1804 0.720436 24.5003 0.345202Z" fill="#262626"/>
<path opacity="0.98" fill-rule="evenodd" clip-rule="evenodd" d="M31.7218 3.01146C34.018 2.99295 36.314 3.01146 38.6097 3.067C38.7578 3.32622 38.7578 3.58545 38.6097 3.84467C36.3137 3.91874 34.0178 3.91874 31.7218 3.84467C31.5797 3.5672 31.5797 3.28946 31.7218 3.01146Z" fill="#262626"/>
<path opacity="0.974" fill-rule="evenodd" clip-rule="evenodd" d="M12.8332 7.45532C13.7591 7.45532 14.6851 7.45532 15.611 7.45532C15.611 14.2691 15.611 21.083 15.611 27.8968C14.4301 27.8199 13.282 27.968 12.1666 28.3412C11.9841 29.1529 12.0768 29.9306 12.4444 30.6742C12.6597 30.9637 12.9375 31.1673 13.2777 31.2852C18.1995 31.4134 23.1254 31.4689 28.0554 31.4518C32.7961 31.4333 37.5367 31.4148 42.2775 31.3963C42.7775 29.5632 43.9441 28.3967 45.7775 27.8968C45.869 28.2725 45.8505 28.6429 45.7219 29.0077C44.1806 29.586 43.3658 30.6969 43.2775 32.3406C33.2034 32.3591 23.1294 32.3406 13.0555 32.285C11.6044 31.7367 10.9563 30.6813 11.111 29.1188C9.96038 30.8096 10.201 32.2724 11.8333 33.5071C12.4559 33.8504 13.1226 34.0356 13.8332 34.0626C24.5368 34.1181 35.2404 34.1367 45.9441 34.1181C45.9441 34.4144 45.9441 34.7106 45.9441 35.0069C30.7961 35.0069 15.648 35.0069 0.5 35.0069C0.5 27.8968 0.5 20.7867 0.5 13.6766C3.46295 13.6766 6.42588 13.6766 9.38883 13.6766C9.37038 12.6761 9.38883 11.6763 9.44438 10.6771C9.94682 8.93389 11.0765 7.85993 12.8332 7.45532ZM13.8332 8.34408C14.1296 8.34408 14.4258 8.34408 14.7221 8.34408C14.7221 14.5654 14.7221 20.7867 14.7221 27.008C13.014 26.7688 11.551 27.2502 10.3333 28.4523C10.2592 22.6383 10.2592 16.8243 10.3333 11.0104C10.9246 9.35505 12.0913 8.46629 13.8332 8.34408ZM1.38888 14.5654C4.05553 14.5654 6.72218 14.5654 9.38883 14.5654C9.38883 15.1579 9.38883 15.7504 9.38883 16.3429C8.46294 16.3429 7.53695 16.3429 6.61107 16.3429C6.46292 18.4907 5.31478 19.6388 3.16665 19.7869C3.16665 22.8234 3.16665 25.8601 3.16665 28.8967C5.31478 29.0447 6.46292 30.1928 6.61107 32.3406C7.61384 32.3037 8.61383 32.3408 9.61105 32.4517C9.92404 33.0585 10.3314 33.5954 10.8333 34.0626C7.68539 34.1181 4.53723 34.1367 1.38888 34.1181C1.38888 27.6005 1.38888 21.083 1.38888 14.5654ZM7.61106 17.2317C8.20361 17.2317 8.79628 17.2317 9.38883 17.2317C9.38883 21.9718 9.38883 26.7117 9.38883 31.4518C8.79505 31.4703 8.2025 31.4517 7.61106 31.3963C7.11106 29.5632 5.94441 28.3967 4.11109 27.8968C4.03701 25.5268 4.03701 23.1567 4.11109 20.7867C5.96955 20.2801 7.13621 19.0952 7.61106 17.2317Z" fill="#262626"/>
<path fill-rule="evenodd" clip-rule="evenodd" d="M16.5 13.6766C26.2777 13.6766 36.0554 13.6766 45.8331 13.6766C45.8331 13.9729 45.8331 14.2691 45.8331 14.5654C36.0554 14.5654 26.2777 14.5654 16.5 14.5654C16.5 14.2691 16.5 13.9729 16.5 13.6766Z" fill="#262626"/>
<path opacity="0.976" fill-rule="evenodd" clip-rule="evenodd" d="M16.5 16.3429C25.4258 16.3429 34.3518 16.3429 43.2776 16.3429C43.3659 17.9865 44.1807 19.0975 45.722 19.6757C45.8506 20.0406 45.8691 20.411 45.7776 20.7867C43.9443 20.2868 42.7776 19.1203 42.2776 17.2872C33.6851 17.2317 25.0926 17.2131 16.5 17.2317C16.5 16.9354 16.5 16.6392 16.5 16.3429Z" fill="#262626"/>
<path opacity="0.876" fill-rule="evenodd" clip-rule="evenodd" d="M23.5001 18.1204C26.9606 17.9677 29.0531 19.5971 29.7779 23.0086C30.2388 25.8125 29.3684 28.09 27.1668 29.8409C23.6701 31.3615 21.133 30.3801 19.5557 26.8969C18.5895 23.9298 19.2006 21.3561 21.389 19.1758C22.0421 18.7011 22.7459 18.3494 23.5001 18.1204ZM23.6112 19.1203C26.2211 18.9728 27.9063 20.1579 28.6668 22.6753C29.0265 24.301 28.8414 25.8563 28.1112 27.3413C27.4747 26.7916 26.7524 26.4028 25.9446 26.1748C27.0212 25.2041 27.4101 24.0006 27.1112 22.5642C26.4179 20.4862 25.066 19.8752 23.0557 20.7311C21.9578 21.6939 21.5689 22.8974 21.889 24.3417C22.0388 25.104 22.4277 25.715 23.0557 26.1748C22.2478 26.4028 21.5256 26.7916 20.889 27.3413C20.1588 25.8563 19.9737 24.301 20.3335 22.6753C20.839 20.9299 21.9317 19.745 23.6112 19.1203ZM23.9446 21.3422C25.0451 21.164 25.7673 21.6084 26.1112 22.6753C26.3939 23.9028 26.0235 24.8657 25.0001 25.5638C24.926 26.0452 24.926 26.5266 25.0001 27.008C25.612 27.2028 26.2231 27.4065 26.8334 27.619C27.1149 27.7338 27.3 27.9375 27.389 28.2301C26.2719 29.4847 24.9015 29.8735 23.2779 29.3966C22.6121 29.1555 22.0566 28.7666 21.6113 28.2301C21.7003 27.9375 21.8854 27.7338 22.1668 27.619C22.7771 27.4065 23.3882 27.2028 24.0001 27.008C24.0742 26.5266 24.0742 26.0452 24.0001 25.5638C22.9768 24.8657 22.6064 23.9028 22.889 22.6753C23.1024 22.1114 23.4541 21.667 23.9446 21.3422Z" fill="#262626"/>
<path opacity="0.864" fill-rule="evenodd" clip-rule="evenodd" d="M36.1661 22.1198C38.4047 21.8957 39.386 22.8955 39.1101 25.1193C38.5166 26.3694 37.5353 26.8323 36.1661 26.508C34.9161 25.9144 34.4532 24.9331 34.7774 23.564C35.0388 22.8769 35.5018 22.3955 36.1661 22.1198ZM36.4994 23.1196C37.7012 23.0437 38.2382 23.5992 38.1103 24.786C37.7726 25.464 37.2355 25.7047 36.4994 25.5082C35.8214 25.1704 35.5808 24.6334 35.7773 23.8973C35.9655 23.5798 36.2062 23.3206 36.4994 23.1196Z" fill="#262626"/>
</svg>
