<svg width="53" height="49" viewBox="0 0 53 49" fill="none" xmlns="http://www.w3.org/2000/svg">
<path opacity="0.954" fill-rule="evenodd" clip-rule="evenodd" d="M52.9761 16.1735C52.9761 18.0696 52.9761 19.9657 52.9761 21.8618C52.4751 22.4025 51.9753 22.4025 51.4765 21.8618C51.442 20.207 51.4075 18.5522 51.3731 16.8975C51.3213 16.4321 51.0628 16.1735 50.5974 16.1218C34.39 16.019 18.187 16.0534 1.98848 16.2252C1.75396 16.3863 1.63329 16.6104 1.6265 16.8975C1.57479 23.3786 1.55754 29.8597 1.57479 36.341C18.1915 36.341 34.8081 36.341 51.4248 36.341C51.4075 32.4453 51.4248 28.5496 51.4765 24.6542C51.6205 24.3578 51.8618 24.2199 52.2004 24.2405C52.5486 24.2333 52.8071 24.3711 52.9761 24.6542C52.9761 31.9972 52.9761 39.3403 52.9761 46.6833C52.6849 47.4743 52.1332 48.0087 51.3213 48.2864C36.98 48.3554 22.6387 48.3554 8.29729 48.2864C7.71067 47.6706 7.77961 47.1535 8.50414 46.7351C22.6387 46.7006 36.7731 46.6661 50.9076 46.6316C51.1759 46.4931 51.3311 46.269 51.3731 45.9594C51.4248 45.0292 51.4419 44.0984 51.4248 43.167C34.8081 43.167 18.1915 43.167 1.57479 43.167C1.53351 44.2423 1.58522 45.3111 1.72992 46.3731C1.82326 46.4973 1.94392 46.5835 2.0919 46.6316C3.2714 46.6385 4.44354 46.7074 5.60829 46.8385C6.05087 47.359 6.01639 47.8417 5.50487 48.2864C4.22932 48.3554 2.95376 48.3554 1.67821 48.2864C0.866318 48.0087 0.314728 47.4743 0.0234375 46.6833C0.0234375 36.4789 0.0234375 26.2745 0.0234375 16.0701C0.358228 15.3392 0.909819 14.8393 1.67821 14.5704C6.84925 14.5187 12.0204 14.5015 17.1917 14.5187C17.1917 13.2432 17.1917 11.9676 17.1917 10.6921C15.4508 10.2568 13.727 9.75691 12.0205 9.19243C11.7921 8.99872 11.6025 8.7746 11.4517 8.52018C11.4173 7.69279 11.3827 6.86541 11.3483 6.03802C9.61661 5.26342 8.99607 3.95339 9.48666 2.10794C10.1725 0.704891 11.2928 0.136064 12.8479 0.401458C14.2707 0.80819 15.0291 1.75624 15.1232 3.2456C15.0795 4.07387 14.7692 4.78059 14.1924 5.36577C13.8675 5.66615 13.4882 5.85577 13.0548 5.9346C13.0227 6.58178 13.0572 7.21955 13.1582 7.84793C14.813 8.3306 16.4677 8.81318 18.1225 9.29585C18.4563 9.4575 18.6805 9.71606 18.7947 10.0715C18.8465 11.5535 18.8637 13.0359 18.8465 14.5187C21.1218 14.5187 23.3971 14.5187 25.6724 14.5187C25.6724 11.6573 25.6724 8.79601 25.6724 5.9346C24.0944 5.40373 23.4221 4.30055 23.6556 2.62506C24.291 0.746953 25.5838 0.0402214 27.534 0.504881C29.3205 1.42365 29.8204 2.81986 29.0336 4.69352C28.6511 5.36995 28.0823 5.78364 27.3272 5.9346C27.3272 8.79601 27.3272 11.6573 27.3272 14.5187C29.6025 14.5187 31.8778 14.5187 34.1531 14.5187C34.1358 13.0359 34.1531 11.5535 34.2048 10.0715C34.4688 9.53342 34.8998 9.20587 35.4976 9.08901C36.9455 8.67531 38.3934 8.26162 39.8414 7.84793C39.9423 7.21955 39.9769 6.58178 39.9448 5.9346C38.3118 5.32432 37.674 4.15219 38.0315 2.41821C38.8125 0.537118 40.1743 -0.0661803 42.1167 0.608304C43.7635 1.69659 44.1255 3.12727 43.2026 4.90037C42.792 5.43236 42.2749 5.81158 41.6513 6.03802C41.6168 6.86541 41.5823 7.69279 41.5478 8.52018C41.3971 8.7746 41.2075 8.99872 40.979 9.19243C39.2813 9.78711 37.5576 10.287 35.8079 10.6921C35.8079 11.9676 35.8079 13.2432 35.8079 14.5187C40.9791 14.5015 46.1503 14.5187 51.3213 14.5704C52.1332 14.8481 52.6849 15.3825 52.9761 16.1735ZM11.8137 2.00452C13.1545 2.01403 13.6199 2.63457 13.2099 3.86614C12.4013 4.732 11.6774 4.66306 11.038 3.65929C10.8591 2.89327 11.1176 2.34169 11.8137 2.00452ZM26.0861 2.00452C27.1867 1.95042 27.7211 2.46753 27.6891 3.55587C27.2728 4.41859 26.6349 4.64268 25.7758 4.22812C25.0312 3.36942 25.1346 2.62823 26.0861 2.00452ZM40.4619 2.00452C41.758 2.01285 42.2234 2.63339 41.8581 3.86614C40.7664 4.80114 39.9907 4.57707 39.5311 3.19388C39.633 2.62745 39.9432 2.23099 40.4619 2.00452ZM1.57479 37.9958C18.1915 37.9958 34.8081 37.9958 51.4248 37.9958C51.4248 39.1679 51.4248 40.3401 51.4248 41.5122C34.8081 41.5122 18.1915 41.5122 1.57479 41.5122C1.57479 40.3401 1.57479 39.1679 1.57479 37.9958Z" fill="#262626"/>
<path opacity="0.922" fill-rule="evenodd" clip-rule="evenodd" d="M42.1164 19.1729C42.7698 19.0864 43.3559 19.2415 43.8746 19.6383C44.7881 20.5518 45.7017 21.4654 46.6153 22.379C47.2986 23.2228 47.333 24.0847 46.7187 24.9646C45.7362 25.9471 44.7537 26.9296 43.7711 27.9121C42.9744 28.3941 42.1814 28.3941 41.3924 27.9121C40.3754 26.8952 39.3584 25.8781 38.3414 24.8611C37.8402 24.0428 37.8748 23.2498 38.4448 22.4824C39.4274 21.4999 40.4099 20.5174 41.3924 19.5348C41.6432 19.4094 41.8846 19.2888 42.1164 19.1729ZM42.4266 20.8276C42.5737 20.8493 42.7116 20.901 42.8403 20.9828C43.762 21.8524 44.6239 22.7659 45.4259 23.7235C44.5676 24.7715 43.6195 25.7368 42.5818 26.6193C41.5691 25.7102 40.5865 24.7622 39.6342 23.7752C40.5484 22.7749 41.4792 21.7924 42.4266 20.8276Z" fill="#262626"/>
<path opacity="0.936" fill-rule="evenodd" clip-rule="evenodd" d="M7.26324 19.5864C10.2691 19.5371 13.2683 19.5888 16.2611 19.7415C16.6095 19.9861 16.8336 20.3136 16.9333 20.724C17.0023 22.758 17.0023 24.792 16.9333 26.826C16.6936 27.4723 16.2282 27.8343 15.5371 27.9119C12.9171 27.9809 10.297 27.9809 7.67693 27.9119C6.94849 27.8842 6.48309 27.5222 6.28072 26.826C6.21177 24.792 6.21177 22.758 6.28072 20.724C6.44895 20.1947 6.77646 19.8154 7.26324 19.5864ZM7.88378 21.2411C10.3659 21.2411 12.8481 21.2411 15.3302 21.2411C15.3302 22.9303 15.3302 24.6197 15.3302 26.3089C12.8481 26.3089 10.3659 26.3089 7.88378 26.3089C7.88378 24.6197 7.88378 22.9303 7.88378 21.2411Z" fill="#262626"/>
</svg>
