<svg width="49" height="49" viewBox="0 0 49 49" fill="none" xmlns="http://www.w3.org/2000/svg">
<path opacity="0.953" fill-rule="evenodd" clip-rule="evenodd" d="M11.5703 0.377365C16.8435 0.0268721 20.9477 2.02494 23.8831 6.37155C25.9035 10.0456 26.1887 13.8514 24.7388 17.7891C22.0873 23.2953 17.6979 25.8484 11.5703 25.4483C7.26511 24.8168 4.04824 22.6126 1.91963 18.8357C0.487599 15.9523 0.138972 12.9393 0.873755 9.7968C2.50319 4.43887 6.06869 1.29905 11.5703 0.377365ZM13.1866 2.66086C18.481 3.09757 21.793 5.88851 23.1225 11.0337C23.7549 16.191 21.774 19.9492 17.18 22.3085C12.5825 24.0144 8.60494 23.0788 5.24743 19.5017C2.85965 16.4241 2.28917 13.0305 3.53599 9.32107C5.38093 5.1077 8.59781 2.88764 13.1866 2.66086Z" fill="#262626"/>
<path opacity="0.945" fill-rule="evenodd" clip-rule="evenodd" d="M12.0454 4.84937C12.7744 4.84937 13.5033 4.84937 14.2323 4.84937C14.2011 5.36074 14.2328 5.86818 14.3274 6.3717C15.7711 6.70611 16.6268 7.59414 16.8945 9.03578C16.2448 9.16787 15.6109 9.35816 14.9929 9.60666C14.3012 8.37047 13.287 8.00574 11.9504 8.51248C11.423 8.86756 11.2488 9.35915 11.4274 9.98724C11.566 10.2213 11.7403 10.4275 11.9504 10.6057C12.8344 11.0911 13.7535 11.5034 14.7077 11.8426C17.5422 13.216 18.2235 15.2933 16.7519 18.0746C16.0653 18.8067 15.2254 19.2507 14.2323 19.4067C14.2323 19.9141 14.2323 20.4216 14.2323 20.929C13.5033 20.929 12.7744 20.929 12.0454 20.929C12.0612 20.4206 12.0453 19.9131 11.9979 19.4067C10.3591 18.9403 9.23396 17.9096 8.62256 16.3144C9.27348 16.0178 9.93904 15.7482 10.6192 15.5057C10.9794 16.1036 11.423 16.6269 11.9504 17.0756C12.8403 17.5151 13.7278 17.5151 14.6126 17.0756C15.5 16.1876 15.5 15.2995 14.6126 14.4115C13.1577 13.6836 11.6997 12.9541 10.2389 12.2232C9.0332 10.9789 8.7955 9.56755 9.52582 7.98918C10.1295 7.07691 10.9693 6.53775 12.0454 6.3717C12.0454 5.86426 12.0454 5.35681 12.0454 4.84937Z" fill="#262626"/>
<path opacity="0.945" fill-rule="evenodd" clip-rule="evenodd" d="M28.5893 5.51517C29.2819 5.46428 29.9475 5.57529 30.586 5.84818C37.06 8.17194 41.2911 12.6279 43.2792 19.2162C43.5163 20.4371 43.0251 20.9921 41.8055 20.8812C41.5491 20.8156 41.3431 20.6729 41.1874 20.4531C39.3085 13.9106 35.1091 9.67666 28.5893 7.7511C27.5965 6.99901 27.5965 6.2537 28.5893 5.51517Z" fill="#262626"/>
<path opacity="0.953" fill-rule="evenodd" clip-rule="evenodd" d="M34.3896 23.2123C39.6628 22.8618 43.767 24.8599 46.7024 29.2065C48.4457 32.2519 48.9211 35.4869 48.1286 38.9114C46.5154 44.2682 42.9499 47.3922 37.4321 48.2833C31.797 48.7229 27.566 46.5187 24.739 41.6706C23.307 38.7872 22.9583 35.7742 23.6931 32.6318C25.3225 27.2738 28.888 24.134 34.3896 23.2123ZM36.0059 25.4958C41.3004 25.9326 44.6123 28.7235 45.9418 33.8687C46.5743 39.026 44.5934 42.7842 39.9993 45.1434C35.4018 46.8493 31.4242 45.9137 28.0668 42.3366C25.679 39.2591 25.1085 35.8655 26.3553 32.156C28.2003 27.9427 31.4171 25.7226 36.0059 25.4958Z" fill="#262626"/>
<path opacity="0.948" fill-rule="evenodd" clip-rule="evenodd" d="M6.43618 27.7796C6.99025 27.6841 7.4498 27.8427 7.81484 28.2553C9.69807 34.9606 13.9926 39.258 20.6982 41.1476C21.06 41.5368 21.1709 41.9966 21.031 42.5272C20.7952 43.0337 20.399 43.2557 19.8425 43.1932C14.4218 41.8761 10.3175 38.7996 7.5296 33.9641C6.64739 32.3936 6.02937 30.7285 5.67554 28.9689C5.64357 28.3837 5.89712 27.9872 6.43618 27.7796Z" fill="#262626"/>
<path opacity="0.957" fill-rule="evenodd" clip-rule="evenodd" d="M33.0582 29.3016C34.6432 29.2857 36.2279 29.3016 37.8122 29.3492C40.1632 29.6405 41.3359 30.9726 41.3301 33.3453C41.2512 35.5181 40.1419 36.8183 38.0023 37.2463C37.0838 37.2939 36.1646 37.3097 35.245 37.2939C35.245 37.7379 35.245 38.1819 35.245 38.6259C36.1324 38.6259 37.0199 38.6259 37.9072 38.6259C37.9072 39.1968 37.9072 39.7677 37.9072 40.3385C37.0199 40.3385 36.1324 40.3385 35.245 40.3385C35.245 40.9729 35.245 41.6071 35.245 42.2414C34.516 42.2414 33.7871 42.2414 33.0582 42.2414C33.0582 41.6071 33.0582 40.9729 33.0582 40.3385C32.6144 40.3385 32.1708 40.3385 31.7271 40.3385C31.7271 39.7677 31.7271 39.1968 31.7271 38.6259C32.1708 38.6259 32.6144 38.6259 33.0582 38.6259C33.0582 38.1819 33.0582 37.7379 33.0582 37.2939C32.6144 37.2939 32.1708 37.2939 31.7271 37.2939C31.7271 36.6278 31.7271 35.9618 31.7271 35.2958C32.1708 35.2958 32.6144 35.2958 33.0582 35.2958C33.0582 33.2977 33.0582 31.2997 33.0582 29.3016ZM35.245 31.3948C35.245 32.6952 35.245 33.9954 35.245 35.2958C35.943 35.3116 36.6402 35.2958 37.3368 35.2482C38.4249 35.0791 39.0271 34.4447 39.1433 33.3453C39.097 32.5215 38.7167 31.9189 38.0023 31.5375C37.0896 31.4052 36.1704 31.3576 35.245 31.3948Z" fill="#262626"/>
</svg>
