<svg width="113" height="49" viewBox="0 0 113 49" fill="none" xmlns="http://www.w3.org/2000/svg">
<path opacity="0.92" fill-rule="evenodd" clip-rule="evenodd" d="M22.4424 0.338135C22.8087 0.338135 23.1747 0.338135 23.541 0.338135C23.6922 4.10155 22.1541 6.92076 18.9268 8.79599C17.8731 9.24261 16.7744 9.4256 15.6309 9.3452C15.6362 5.85507 17.101 3.18217 20.0254 1.32671C20.8528 0.984227 21.6585 0.6547 22.4424 0.338135Z" fill="#262626"/>
<path opacity="0.958" fill-rule="evenodd" clip-rule="evenodd" d="M37.6035 2.97433C42.5113 2.93765 47.4185 2.97433 52.3252 3.08417C57.8772 3.72917 61.283 6.76828 62.5425 12.2011C63.5451 17.9184 61.604 22.2754 56.7197 25.2723C55.526 25.8088 54.2808 26.1748 52.9844 26.3707C49.7625 26.4806 46.5398 26.5173 43.3164 26.4806C43.3164 30.508 43.3164 34.5357 43.3164 38.5632C41.412 38.5632 39.5079 38.5632 37.6035 38.5632C37.6035 26.7003 37.6035 14.8373 37.6035 2.97433ZM43.3164 7.80739C45.7345 7.7707 48.1515 7.80739 50.5674 7.91723C54.6604 8.34803 56.7845 10.6183 56.9395 14.7275C56.8847 18.4423 55.0538 20.7125 51.4463 21.5377C48.7373 21.6475 46.0274 21.6842 43.3164 21.6475C43.3164 17.0341 43.3164 12.4208 43.3164 7.80739Z" fill="#262626"/>
<path opacity="0.981" fill-rule="evenodd" clip-rule="evenodd" d="M0.25 24.064C0.25 22.2334 0.25 20.4025 0.25 18.5719C1.49089 12.6075 5.153 9.71487 11.2363 9.89435C12.8468 10.3946 14.4581 10.8706 16.0703 11.3223C17.9635 10.7527 19.8678 10.2034 21.7832 9.67466C25.4946 9.23727 28.4242 10.5187 30.5723 13.5191C26.3379 16.7094 25.4225 20.6637 27.8257 25.3821C28.8237 26.8142 30.1056 27.9127 31.6709 28.6774C30.6947 31.51 29.2664 34.073 27.3862 36.3663C25.8721 38.4333 23.8581 39.2022 21.3438 38.673C19.8453 37.9536 18.2706 37.5509 16.6196 37.4648C16.0703 37.5014 15.521 37.5379 14.9717 37.5746C13.4442 38.2101 11.8695 38.6862 10.2476 39.0025C9.25398 38.8903 8.33844 38.5608 7.50098 38.014C3.54067 34.1587 1.12367 29.5089 0.25 24.064Z" fill="#262626"/>
<path opacity="0.946" fill-rule="evenodd" clip-rule="evenodd" d="M73.4189 12.2012C77.2257 11.6651 80.6681 12.5072 83.746 14.7275C85.0701 16.0206 85.8392 17.5951 86.0532 19.4508C86.163 25.8212 86.1997 32.192 86.163 38.5633C84.4052 38.5633 82.6474 38.5633 80.8896 38.5633C80.9261 37.2432 80.8894 35.9251 80.7797 34.609C79.4963 36.6253 77.702 37.98 75.3964 38.6732C71.5073 39.6879 68.1747 38.7725 65.3989 35.9271C63.5051 32.8454 63.5051 29.7698 65.3989 26.7003C67.4982 24.6571 70.025 23.5953 72.9794 23.5149C75.55 23.3772 78.1136 23.1942 80.6699 22.9657C81.1781 19.0819 79.4935 16.9582 75.6162 16.5949C72.8555 16.581 71.0245 17.8627 70.123 20.4393C68.4401 20.5492 66.7555 20.5857 65.0693 20.5492C65.1967 17.4743 66.5883 15.1676 69.2441 13.6291C70.6097 12.9912 72.0014 12.5151 73.4189 12.2012ZM79.3515 26.92C79.791 26.92 80.2304 26.92 80.6699 26.92C81.0043 31.6009 78.8437 34.1637 74.1879 34.609C70.533 34.5499 69.1413 32.7924 70.0131 29.3366C70.6082 28.5448 71.3772 27.9956 72.3203 27.6889C74.6854 27.3425 77.0292 27.0861 79.3515 26.92Z" fill="#262626"/>
<path opacity="0.948" fill-rule="evenodd" clip-rule="evenodd" d="M112.75 12.6403C112.75 12.9332 112.75 13.2262 112.75 13.5191C109.579 22.1134 106.466 30.7542 103.412 39.4419C102.553 42.2953 101.051 44.7483 98.9072 46.8013C96.3547 48.0983 93.6446 48.5744 90.7773 48.2292C90.7773 46.6914 90.7773 45.1536 90.7773 43.6159C94.697 44.2745 96.8943 42.6268 97.3691 38.673C94.4022 30.0299 91.326 21.4255 88.1406 12.86C90.168 12.5707 92.1821 12.5707 94.1831 12.86C96.3072 19.6702 98.4311 26.4805 100.555 33.2907C102.738 26.4884 104.898 19.6782 107.037 12.86C108.936 12.6408 110.84 12.5676 112.75 12.6403Z" fill="#262626"/>
</svg>
