<svg width="49" height="49" viewBox="0 0 49 49" fill="none" xmlns="http://www.w3.org/2000/svg">
<path opacity="0.957" fill-rule="evenodd" clip-rule="evenodd" d="M3.3125 0.338135C17.4375 0.338135 31.5625 0.338135 45.6875 0.338135C47.3386 0.913474 48.2448 2.08534 48.4062 3.85376C47.9552 10.679 47.549 17.5071 47.1875 24.3381C47.4053 28.0562 47.5772 31.7749 47.7031 35.4944C47.3985 35.8463 47.0392 35.9244 46.625 35.7288C46.4387 35.6051 46.3293 35.4333 46.2969 35.2131C46.0882 31.838 45.8851 28.463 45.6875 25.0881C35.3749 25.1038 25.0624 25.0881 14.75 25.0413C14.3071 24.813 14.1665 24.4535 14.3281 23.9631C14.4419 23.8179 14.5826 23.7086 14.75 23.635C25.0624 23.5881 35.3749 23.5725 45.6875 23.5881C46.0705 17.0236 46.4767 10.4611 46.9062 3.90063C46.7373 2.68488 46.0498 1.98175 44.8438 1.79126C31.2812 1.72876 17.7188 1.72876 4.15625 1.79126C2.97164 1.97586 2.28414 2.66337 2.09375 3.85376C2.52138 10.4302 2.92764 17.0084 3.3125 23.5881C6.21892 23.5725 9.12517 23.5881 12.0312 23.635C12.4812 23.9229 12.5905 24.3136 12.3594 24.8069C12.2747 24.9195 12.1654 24.9977 12.0312 25.0413C9.12517 25.0881 6.21892 25.1038 3.3125 25.0881C2.92764 31.6679 2.52138 38.246 2.09375 44.8225C2.28414 46.0129 2.97164 46.7004 4.15625 46.885C10.9375 46.9007 17.7188 46.9162 24.5 46.9319C31.4715 46.9466 38.4403 46.8997 45.4062 46.7913C46.314 46.4295 46.814 45.7576 46.9062 44.7756C46.7502 42.8412 46.6252 40.9037 46.5312 38.9631C46.3024 37.8633 46.7087 37.4726 47.75 37.7913C47.8641 37.9458 47.9422 38.1176 47.9844 38.3069C48.1368 40.5891 48.2618 42.8704 48.3594 45.1506C48.1035 46.7615 47.2129 47.824 45.6875 48.3381C31.5625 48.3381 17.4375 48.3381 3.3125 48.3381C1.66142 47.7628 0.755171 46.5909 0.59375 44.8225C1.04474 37.9972 1.45099 31.1691 1.8125 24.3381C1.45099 17.5071 1.04474 10.679 0.59375 3.85376C0.755171 2.08534 1.66142 0.913474 3.3125 0.338135ZM26 11.3069C26.2519 11.2915 26.5019 11.3072 26.75 11.3538C27 11.6038 27 11.8537 26.75 12.1038C26.5143 12.2211 26.2644 12.268 26 12.2444C26 11.9319 26 11.6194 26 11.3069Z" fill="#262626"/>
<path opacity="0.933" fill-rule="evenodd" clip-rule="evenodd" d="M4.90625 9.80693C5.72655 9.7685 6.53904 9.81537 7.34375 9.94756C8.51925 10.6726 8.78488 11.657 8.14063 12.9007C7.58684 13.5387 6.88371 13.82 6.03125 13.7444C6.04681 14.2142 6.03119 14.683 5.98438 15.1507C5.70477 15.6258 5.31414 15.7352 4.8125 15.4788C4.69987 15.3942 4.62174 15.2848 4.57813 15.1507C4.51562 13.5257 4.51562 11.9007 4.57813 10.2757C4.67162 10.1048 4.78099 9.9485 4.90625 9.80693ZM6.03125 11.3069C6.03125 11.6194 6.03125 11.932 6.03125 12.2444C6.29561 12.2681 6.54561 12.2212 6.78125 12.1038C7.03126 11.8538 7.03126 11.6038 6.78125 11.3538C6.53319 11.3072 6.28319 11.2916 6.03125 11.3069Z" fill="#262626"/>
<path opacity="0.937" fill-rule="evenodd" clip-rule="evenodd" d="M10.7188 9.80694C11.3355 9.66987 11.7574 9.88859 11.9844 10.4632C12.5028 11.7997 13.0028 13.1434 13.4844 14.4944C13.6245 15.3859 13.2651 15.714 12.4063 15.4788C12.1494 15.2085 11.9619 14.8961 11.8438 14.5413C11.3409 14.4636 10.8408 14.4792 10.3438 14.5882C10.2253 14.8343 10.1158 15.0843 10.0156 15.3382C9.50203 15.7602 9.06452 15.6977 8.70313 15.1507C8.64062 14.9632 8.64062 14.7757 8.70313 14.5882C9.23438 13.1819 9.76562 11.7757 10.2969 10.3694C10.3887 10.1381 10.5293 9.95056 10.7188 9.80694ZM11.0938 12.5257C11.0584 12.6905 10.9959 12.8468 10.9063 12.9944C11.0177 13.0815 11.1427 13.1127 11.2813 13.0882C11.2723 12.8739 11.2098 12.6864 11.0938 12.5257Z" fill="#262626"/>
<path opacity="0.92" fill-rule="evenodd" clip-rule="evenodd" d="M15.7813 9.80682C16.7384 9.65899 17.5665 9.90901 18.2657 10.5568C18.5009 11.4157 18.1728 11.7751 17.2813 11.6349C16.9252 11.3363 16.5189 11.2425 16.0626 11.3537C16.0197 11.3925 15.9884 11.4394 15.9688 11.4943C16.6052 11.7656 17.2302 12.0624 17.8438 12.3849C18.5816 13.1228 18.6909 13.9509 18.1719 14.8693C16.9917 15.8399 15.7886 15.8555 14.5626 14.9162C14.1713 14.5728 14.1089 14.1822 14.3751 13.7443C14.5216 13.566 14.7091 13.4723 14.9376 13.4631C15.3608 13.6796 15.7983 13.8828 16.2501 14.0724C16.5085 14.1458 16.7429 14.0989 16.9532 13.9318C17.0173 13.8114 17.0016 13.702 16.9063 13.6037C16.2702 13.3399 15.6452 13.0586 15.0313 12.7599C14.377 12.0585 14.2989 11.2929 14.7969 10.4631C15.0926 10.1807 15.4207 9.96198 15.7813 9.80682Z" fill="#262626"/>
<path opacity="0.921" fill-rule="evenodd" clip-rule="evenodd" d="M20.9376 9.80696C21.9576 9.63138 22.817 9.91262 23.5157 10.6507C23.6047 11.4679 23.2454 11.7961 22.4376 11.6351C22.0261 11.2747 21.5886 11.2278 21.1251 11.4945C21.7117 11.7684 22.3054 12.0341 22.9064 12.2913C23.9367 13.2452 23.9679 14.214 23.0001 15.1976C21.6734 15.876 20.5016 15.6728 19.4845 14.5882C19.3285 13.7758 19.6566 13.4163 20.4689 13.5101C20.9098 14.0116 21.441 14.1678 22.0626 13.9788C22.1901 13.7971 22.1589 13.641 21.9689 13.5101C21.3522 13.3149 20.7584 13.065 20.1876 12.7601C19.4376 11.9163 19.4376 11.0726 20.1876 10.2288C20.4313 10.0606 20.6813 9.91993 20.9376 9.80696Z" fill="#262626"/>
<path opacity="0.932" fill-rule="evenodd" clip-rule="evenodd" d="M24.9688 9.80674C25.7579 9.76868 26.5392 9.81555 27.3125 9.94736C28.4603 10.6214 28.7571 11.5746 28.2031 12.8067C27.6406 13.5102 26.9061 13.8228 26 13.7442C26.0156 14.214 25.9999 14.6828 25.9531 15.1505C25.6638 15.6429 25.2732 15.7366 24.7813 15.4317C24.6796 15.3225 24.6016 15.1976 24.5469 15.0567C24.4844 13.463 24.4844 11.8692 24.5469 10.2755C24.643 10.0705 24.7836 9.91418 24.9688 9.80674ZM26 11.3067C26 11.6192 26 11.9318 26 12.2442C26.2644 12.2679 26.5143 12.221 26.75 12.1036C27.0001 11.8536 27.0001 11.6036 26.75 11.3536C26.502 11.307 26.2519 11.2914 26 11.3067Z" fill="#262626"/>
<path opacity="0.924" fill-rule="evenodd" clip-rule="evenodd" d="M31.5315 9.80673C33.2662 9.5714 34.4381 10.2589 35.0472 11.8692C35.383 14.0723 34.4455 15.3222 32.2347 15.6192C30.1049 15.3318 29.1674 14.113 29.4222 11.963C29.7675 10.8834 30.4707 10.1646 31.5315 9.80673ZM31.8128 11.3067C30.8177 11.8755 30.6147 12.6567 31.2034 13.6505C32.3303 14.4206 33.1428 14.1707 33.6409 12.9005C33.5795 11.7618 32.9701 11.2305 31.8128 11.3067Z" fill="#262626"/>
<path opacity="0.939" fill-rule="evenodd" clip-rule="evenodd" d="M36.5 9.80686C37.1882 9.7913 37.8757 9.80686 38.5625 9.85373C39.5169 10.1835 39.97 10.8555 39.9219 11.8694C39.8242 12.5495 39.4649 13.0338 38.8438 13.3225C39.3153 13.7769 39.6903 14.2925 39.9688 14.8694C39.7816 15.5255 39.3753 15.7286 38.75 15.4787C38.3561 15.1162 37.9967 14.7256 37.6719 14.3069C37.6832 14.7226 37.5738 15.0976 37.3438 15.4319C36.8984 15.7147 36.5078 15.6522 36.1719 15.2444C36.1094 13.5569 36.1094 11.8694 36.1719 10.1819C36.2366 10.0084 36.3459 9.88336 36.5 9.80686ZM37.625 11.3069C37.625 11.5569 37.625 11.8068 37.625 12.0569C38.0115 12.1137 38.2927 11.973 38.4688 11.635C38.2649 11.3495 37.9836 11.2402 37.625 11.3069Z" fill="#262626"/>
<path opacity="0.926" fill-rule="evenodd" clip-rule="evenodd" d="M41 9.8069C42.0317 9.79124 43.063 9.8069 44.0938 9.85377C44.6276 10.4033 44.565 10.8721 43.9063 11.26C43.6897 11.3066 43.471 11.3222 43.25 11.3069C43.2657 12.5886 43.25 13.8697 43.2031 15.1506C42.9235 15.6258 42.5329 15.7352 42.0313 15.4788C41.9187 15.3941 41.8405 15.2848 41.7969 15.1506C41.75 13.8697 41.7344 12.5886 41.75 11.3069C40.8245 11.3671 40.4651 10.9608 40.6719 10.0881C40.7792 9.98165 40.8886 9.8879 41 9.8069Z" fill="#262626"/>
<path opacity="0.931" fill-rule="evenodd" clip-rule="evenodd" d="M7.53112 27.3381C10.1251 27.3225 12.7188 27.3381 15.3124 27.385C16.6284 27.7635 17.4253 28.6229 17.703 29.9631C17.7655 32.9944 17.7655 36.0257 17.703 39.0569C17.0545 42.5493 14.9607 44.4243 11.4217 44.6819C7.62018 44.3491 5.52643 42.2866 5.14049 38.4944C5.05181 35.554 5.08305 32.6166 5.23424 29.6819C5.57869 28.4781 6.34432 27.6969 7.53112 27.3381ZM7.81237 28.8381C7.28289 29.0397 6.92351 29.4147 6.73424 29.9631C6.57196 31.1474 6.55633 32.3348 6.68737 33.5256C8.1822 33.1485 9.6822 32.7891 11.1874 32.4475C12.0864 32.1861 12.9927 32.1547 13.9061 32.3538C14.6903 32.6526 15.4716 32.9494 16.2499 33.2444C16.2655 32.2127 16.2499 31.1814 16.203 30.1506C16.0377 29.5167 15.6471 29.0948 15.0311 28.885C12.625 28.8381 10.2188 28.8225 7.81237 28.8381ZM12.3124 33.7131C12.7575 33.6921 13.195 33.7389 13.6249 33.8538C14.4686 34.2131 15.3124 34.5726 16.1561 34.9319C16.2877 36.4346 16.2721 37.9346 16.1092 39.4319C15.313 41.9774 13.5787 43.2118 10.9061 43.135C8.7216 42.7386 7.33098 41.473 6.73424 39.3381C6.61106 37.9036 6.56418 36.466 6.59362 35.0256C8.52129 34.6341 10.4275 34.1967 12.3124 33.7131Z" fill="#262626"/>
<path opacity="0.933" fill-rule="evenodd" clip-rule="evenodd" d="M24.1253 27.3381C30.2504 27.3225 36.3754 27.3381 42.5003 27.385C42.7831 27.5284 42.908 27.7627 42.8753 28.0881C42.8811 28.4734 42.6936 28.7077 42.3128 28.7913C36.344 28.8538 30.3753 28.8538 24.4066 28.7913C23.8297 28.6539 23.6266 28.2946 23.7972 27.7131C23.8619 27.5397 23.9712 27.4146 24.1253 27.3381Z" fill="#262626"/>
<path opacity="0.933" fill-rule="evenodd" clip-rule="evenodd" d="M24.1253 31.5569C30.2504 31.5412 36.3754 31.5569 42.5003 31.6038C42.7831 31.7471 42.908 31.9815 42.8753 32.3069C42.8811 32.6921 42.6936 32.9265 42.3128 33.01C36.344 33.0726 30.3753 33.0726 24.4066 33.01C23.8297 32.8727 23.6266 32.5133 23.7972 31.9319C23.8619 31.7585 23.9712 31.6334 24.1253 31.5569Z" fill="#262626"/>
<path opacity="0.887" fill-rule="evenodd" clip-rule="evenodd" d="M8.5625 35.6817C8.97391 35.6295 9.27079 35.7857 9.45313 36.1504C9.51563 36.7129 9.51563 37.2754 9.45313 37.8379C8.9432 38.4743 8.47445 38.4431 8.04688 37.7442C7.98437 37.2129 7.98437 36.6817 8.04688 36.1504C8.15061 35.9055 8.32249 35.7492 8.5625 35.6817Z" fill="#262626"/>
<path opacity="0.897" fill-rule="evenodd" clip-rule="evenodd" d="M13.9063 35.6817C14.3176 35.6295 14.6146 35.7857 14.7969 36.1504C14.8594 36.7129 14.8594 37.2754 14.7969 37.8379C14.2912 38.4774 13.8225 38.4461 13.3906 37.7442C13.3281 37.2442 13.3281 36.7442 13.3906 36.2442C13.4864 35.977 13.6582 35.7895 13.9063 35.6817Z" fill="#262626"/>
<path opacity="0.933" fill-rule="evenodd" clip-rule="evenodd" d="M24.1253 35.7756C30.2504 35.76 36.3754 35.7756 42.5003 35.8225C42.7831 35.9659 42.908 36.2002 42.8753 36.5256C42.8811 36.9109 42.6936 37.1452 42.3128 37.2288C36.344 37.2913 30.3753 37.2913 24.4066 37.2288C23.8297 37.0914 23.6266 36.7321 23.7972 36.1506C23.8619 35.9772 23.9712 35.8521 24.1253 35.7756Z" fill="#262626"/>
<path opacity="0.929" fill-rule="evenodd" clip-rule="evenodd" d="M29.5626 38.7754C30.9703 38.5804 31.9235 39.1429 32.422 40.4629C32.5278 41.333 32.2621 42.0675 31.6251 42.6661C32.7778 43.1914 33.9653 43.2852 35.1876 42.9473C35.3328 42.8335 35.4421 42.6929 35.5157 42.5254C35.9426 40.6988 36.8175 40.4488 38.1407 41.7754C38.4177 42.2081 38.652 42.6612 38.8438 43.1348C38.609 43.8485 38.1559 44.0204 37.4845 43.6504C37.3282 43.4004 37.172 43.1505 37.0157 42.9004C36.6172 44.0148 35.8203 44.593 34.6251 44.6348C33.0889 44.7338 31.6358 44.4369 30.2657 43.7442C29.0601 44.479 27.7633 44.7447 26.3751 44.5411C25.9228 44.1677 25.8916 43.7613 26.2813 43.3223C27.1415 43.2127 27.9853 43.0252 28.8126 42.7598C27.9052 41.7467 27.8271 40.6685 28.5782 39.5254C28.8875 39.2394 29.2156 38.9894 29.5626 38.7754ZM29.9376 40.2754C29.3873 40.9164 29.4655 41.4789 30.172 41.9629C30.5474 41.6817 30.8131 41.3223 30.9688 40.8848C30.7739 40.4234 30.4302 40.2202 29.9376 40.2754Z" fill="#262626"/>
<path opacity="0.901" fill-rule="evenodd" clip-rule="evenodd" d="M10.0625 39.9006C10.5228 39.9506 10.976 40.0444 11.4219 40.1819C11.7042 40.1607 11.9698 40.0826 12.2187 39.9475C12.9844 39.8381 13.3125 40.1662 13.2031 40.9319C12.8915 41.3459 12.4696 41.5803 11.9375 41.635C11.2067 41.7492 10.5191 41.6242 9.87498 41.26C9.47724 40.7419 9.53975 40.2889 10.0625 39.9006Z" fill="#262626"/>
</svg>
