<svg width="24" height="24" viewBox="0 0 24 24" fill="none" xmlns="http://www.w3.org/2000/svg">
<path opacity="0.97" fill-rule="evenodd" clip-rule="evenodd" d="M10.9688 0C11.4062 0 11.8438 0 12.2812 0C12.8754 0.282851 13.0551 0.735975 12.8203 1.35938C12.6928 1.59615 12.4975 1.74458 12.2344 1.80469C8.41645 1.88881 5.4555 3.506 3.35156 6.65625C1.46475 9.93206 1.33975 13.2758 2.97656 16.6875C5.09892 20.394 8.30986 22.2143 12.6094 22.1484C15.8083 21.8737 18.363 20.4597 20.2734 17.9062C21.5532 16.0665 22.1939 14.0196 22.1953 11.7656C22.375 11.2734 22.7266 11.0468 23.25 11.0859C23.6097 11.1726 23.8598 11.3835 24 11.7188C24 12.1562 24 12.5938 24 13.0312C23.4121 17.7312 20.9746 21.0828 16.6875 23.0859C15.507 23.5686 14.2882 23.8732 13.0312 24C12.3437 24 11.6563 24 10.9688 24C6.26878 23.4121 2.91722 20.9746 0.914062 16.6875C0.431434 15.507 0.126747 14.2882 0 13.0312C0 12.3437 0 11.6563 0 10.9688C0.58785 6.26878 3.02535 2.91722 7.3125 0.914062C8.493 0.431434 9.71175 0.126747 10.9688 0Z" fill="#262626"/>
<path opacity="0.964" fill-rule="evenodd" clip-rule="evenodd" d="M22.4533 3.00002C23.3043 2.96825 23.6715 3.37449 23.5548 4.21877C23.508 4.31252 23.4611 4.40627 23.4142 4.50002C19.4976 8.44793 15.5523 12.362 11.5783 16.2422C11.2592 16.3458 10.9467 16.3302 10.6408 16.1953C9.14702 14.6235 7.67046 13.0376 6.2111 11.4375C6.03691 11.2478 5.88063 11.0446 5.74235 10.8281C5.57491 10.0842 5.86399 9.64671 6.60954 9.51565C6.78775 9.54977 6.95964 9.60443 7.12516 9.67971C8.49396 11.1266 9.8455 12.5875 11.1798 14.0625C14.8139 10.4128 18.4624 6.77997 22.1252 3.16408C22.2388 3.10724 22.3482 3.05255 22.4533 3.00002Z" fill="#262626"/>
</svg>
