<svg width="20" height="21" viewBox="0 0 20 21" fill="none" xmlns="http://www.w3.org/2000/svg">
<path opacity="0.97" fill-rule="evenodd" clip-rule="evenodd" d="M9.14062 0.5C9.5052 0.5 9.8698 0.5 10.2344 0.5C10.7295 0.735709 10.8793 1.11331 10.6836 1.63281C10.5773 1.83012 10.4146 1.95382 10.1953 2.00391C7.01371 2.07401 4.54625 3.42166 2.79297 6.04688C1.22063 8.77672 1.11646 11.5632 2.48047 14.4062C4.2491 17.495 6.92488 19.012 10.5078 18.957C13.1736 18.7281 15.3025 17.5497 16.8945 15.4219C17.961 13.8888 18.4949 12.183 18.4961 10.3047C18.6459 9.89449 18.9388 9.70566 19.375 9.73828C19.6748 9.81051 19.8831 9.98629 20 10.2656C20 10.6302 20 10.9948 20 11.3594C19.5101 15.276 17.4789 18.069 13.9062 19.7383C12.9225 20.1405 11.9069 20.3944 10.8594 20.5C10.2864 20.5 9.71355 20.5 9.14062 20.5C5.22398 20.0101 2.43102 17.9789 0.761719 14.4062C0.359529 13.4225 0.105622 12.4069 0 11.3594C0 10.7864 0 10.2136 0 9.64062C0.489875 5.72398 2.52113 2.93102 6.09375 1.26172C7.0775 0.859529 8.09313 0.605622 9.14062 0.5Z" fill="#262626"/>
<path opacity="0.964" fill-rule="evenodd" clip-rule="evenodd" d="M18.7112 2.99998C19.4204 2.9735 19.7264 3.31204 19.6292 4.0156C19.5901 4.09373 19.5511 4.17185 19.512 4.24998C16.2481 7.5399 12.9604 10.8016 9.64873 14.0351C9.38284 14.1215 9.12245 14.1085 8.86748 13.9961C7.62268 12.6862 6.39221 11.3646 5.17608 10.0312C5.03092 9.8731 4.90069 9.7038 4.78545 9.52341C4.64592 8.90345 4.88682 8.53888 5.50811 8.42966C5.65662 8.4581 5.79987 8.50365 5.9378 8.56638C7.07846 9.77209 8.20475 10.9895 9.3167 12.2187C12.3451 9.17728 15.3855 6.14994 18.4378 3.13669C18.5325 3.08933 18.6237 3.04375 18.7112 2.99998Z" fill="#262626"/>
</svg>
