<svg width="101" height="100" viewBox="0 0 101 100" fill="none" xmlns="http://www.w3.org/2000/svg">
<circle cx="50.5" cy="50" r="50" fill="#EDEDED"/>
<path d="M40.32 65V60.8L51.12 50.6C51.9733 49.8267 52.6 49.1333 53 48.52C53.4 47.9067 53.6667 47.3467 53.8 46.84C53.96 46.3333 54.04 45.8667 54.04 45.44C54.04 44.32 53.6533 43.4667 52.88 42.88C52.1333 42.2667 51.0267 41.96 49.56 41.96C48.3867 41.96 47.2933 42.1867 46.28 42.64C45.2933 43.0933 44.4533 43.8 43.76 44.76L39.04 41.72C40.1067 40.12 41.6 38.8533 43.52 37.92C45.44 36.9867 47.6533 36.52 50.16 36.52C52.24 36.52 54.0533 36.8667 55.6 37.56C57.1733 38.2267 58.3867 39.1733 59.24 40.4C60.12 41.6267 60.56 43.0933 60.56 44.8C60.56 45.7067 60.44 46.6133 60.2 47.52C59.9867 48.4 59.5333 49.3333 58.84 50.32C58.1733 51.3067 57.1867 52.4133 55.88 53.64L46.92 62.08L45.68 59.72H61.48V65H40.32Z" fill="#262626"/>
</svg>
