<svg width="101" height="100" viewBox="0 0 101 100" fill="none" xmlns="http://www.w3.org/2000/svg">
<circle cx="50.5" cy="50" r="50" fill="#EDEDED"/>
<path d="M49.64 65.48C47.6933 65.48 45.76 65.2267 43.84 64.72C41.92 64.1867 40.2933 63.44 38.96 62.48L41.48 57.52C42.5467 58.2933 43.7867 58.9067 45.2 59.36C46.6133 59.8133 48.04 60.04 49.48 60.04C51.1067 60.04 52.3867 59.72 53.32 59.08C54.2533 58.44 54.72 57.56 54.72 56.44C54.72 55.3733 54.3067 54.5333 53.48 53.92C52.6533 53.3067 51.32 53 49.48 53H46.52V48.72L54.32 39.88L55.04 42.2H40.36V37H59.96V41.2L52.2 50.04L48.92 48.16H50.8C54.24 48.16 56.84 48.9333 58.6 50.48C60.36 52.0267 61.24 54.0133 61.24 56.44C61.24 58.0133 60.8267 59.4933 60 60.88C59.1733 62.24 57.9067 63.3467 56.2 64.2C54.4933 65.0533 52.3067 65.48 49.64 65.48Z" fill="#262626"/>
</svg>
