<svg width="200" height="200" viewBox="0 0 200 200" fill="none" xmlns="http://www.w3.org/2000/svg">
<circle cx="100" cy="100" r="100" fill="#EDEDED"/>
<path d="M97.28 129.96C93.3867 129.96 89.52 129.453 85.68 128.44C81.84 127.373 78.5867 125.88 75.92 123.96L80.96 114.04C83.0933 115.587 85.5733 116.813 88.4 117.72C91.2267 118.627 94.08 119.08 96.96 119.08C100.213 119.08 102.773 118.44 104.64 117.16C106.507 115.88 107.44 114.12 107.44 111.88C107.44 109.747 106.613 108.067 104.96 106.84C103.307 105.613 100.64 105 96.96 105H91.04V96.44L106.64 78.76L108.08 83.4H78.72V73H117.92V81.4L102.4 99.08L95.84 95.32H99.6C106.48 95.32 111.68 96.8667 115.2 99.96C118.72 103.053 120.48 107.027 120.48 111.88C120.48 115.027 119.653 117.987 118 120.76C116.347 123.48 113.813 125.693 110.4 127.4C106.987 129.107 102.613 129.96 97.28 129.96Z" fill="#262626"/>
</svg>
