<svg width="201" height="200" viewBox="0 0 201 200" fill="none" xmlns="http://www.w3.org/2000/svg">
<circle cx="100.5" cy="100" r="100" fill="#EDEDED"/>
<path d="M79.14 129V120.6L100.74 100.2C102.447 98.6533 103.7 97.2667 104.5 96.04C105.3 94.8133 105.833 93.6933 106.1 92.68C106.42 91.6667 106.58 90.7333 106.58 89.88C106.58 87.64 105.807 85.9333 104.26 84.76C102.767 83.5333 100.553 82.92 97.62 82.92C95.2733 82.92 93.0867 83.3733 91.06 84.28C89.0867 85.1867 87.4067 86.6 86.02 88.52L76.58 82.44C78.7133 79.24 81.7 76.7067 85.54 74.84C89.38 72.9733 93.8067 72.04 98.82 72.04C102.98 72.04 106.607 72.7333 109.7 74.12C112.847 75.4533 115.273 77.3467 116.98 79.8C118.74 82.2533 119.62 85.1867 119.62 88.6C119.62 90.4133 119.38 92.2267 118.9 94.04C118.473 95.8 117.567 97.6667 116.18 99.64C114.847 101.613 112.873 103.827 110.26 106.28L92.34 123.16L89.86 118.44H121.46V129H79.14Z" fill="#262626"/>
</svg>
